<?xml version="1.0" standalone="no"?>
<!DOCTYPE svg PUBLIC "-//W3C//DTD SVG 20010904//EN"
 "http://www.w3.org/TR/2001/REC-SVG-20010904/DTD/svg10.dtd">
<svg version="1.0" xmlns="http://www.w3.org/2000/svg"
 width="1335.000000pt" height="1443.000000pt" viewBox="0 0 1335.000000 1443.000000"
 preserveAspectRatio="xMidYMid meet">

<g transform="translate(0.000000,1443.000000) scale(0.100000,-0.100000)"
fill="#fff" stroke="none">
<path d="M11258 14330 c-58 -5 -133 -13 -165 -20 -133 -27 -261 -60 -300 -80
-23 -11 -46 -20 -51 -20 -5 0 -46 -18 -91 -40 -45 -22 -86 -40 -92 -40 -18 0
-73 -32 -131 -76 -31 -24 -59 -44 -63 -44 -3 0 -33 -18 -66 -41 -61 -41 -86
-65 -240 -226 -115 -121 -288 -377 -335 -498 -122 -312 -149 -452 -148 -755 2
-309 23 -418 133 -690 28 -68 62 -140 75 -160 47 -71 57 -167 22 -203 -19 -19
-329 -398 -361 -442 -35 -46 -51 -66 -85 -105 -14 -16 -33 -39 -42 -52 -31
-41 -162 -203 -183 -224 -23 -24 -61 -70 -90 -109 -40 -54 -115 -125 -139
-131 -40 -10 -86 12 -181 87 -89 70 -404 312 -520 399 -33 25 -67 51 -75 57
-18 15 -233 181 -337 259 -85 65 -131 115 -139 152 -42 197 -151 359 -286 428
-60 31 -203 64 -271 64 -100 -1 -187 -29 -286 -94 -169 -111 -268 -335 -232
-526 32 -173 45 -202 128 -281 81 -78 132 -115 200 -146 53 -25 71 -28 198
-31 168 -3 173 -4 211 -37 16 -14 139 -110 274 -212 135 -103 268 -205 296
-227 28 -23 102 -79 164 -126 62 -47 118 -89 124 -95 6 -5 36 -28 66 -51 30
-22 79 -58 108 -80 29 -21 63 -54 74 -72 18 -29 19 -39 10 -70 -6 -21 -31 -58
-55 -83 -23 -25 -80 -93 -126 -150 -45 -57 -92 -115 -104 -129 -30 -35 -107
-131 -137 -170 -33 -44 -70 -89 -95 -115 -11 -11 -30 -34 -42 -50 -30 -41
-292 -369 -351 -440 -168 -203 -292 -357 -292 -363 0 -4 -15 -23 -33 -42 -35
-38 -120 -139 -177 -210 -19 -24 -62 -76 -95 -115 -33 -38 -112 -133 -174
-210 -63 -77 -122 -149 -133 -160 -10 -11 -102 -123 -203 -250 -102 -126 -199
-246 -215 -265 -22 -26 -30 -45 -30 -74 0 -22 90 -422 200 -890 110 -468 210
-891 221 -941 11 -49 24 -101 29 -115 4 -14 13 -44 20 -67 7 -24 16 -43 20
-43 10 0 80 86 80 98 0 5 9 17 20 27 11 10 20 22 20 27 0 5 22 37 50 72 27 35
56 74 63 87 20 38 49 80 92 136 22 28 58 77 80 108 22 31 58 79 80 108 22 29
56 75 74 102 19 28 37 52 41 55 9 9 94 123 132 180 21 30 55 80 78 110 22 30
56 78 75 105 20 28 51 70 70 95 19 25 50 68 70 95 19 28 53 75 75 105 22 30
59 82 82 115 22 33 44 62 47 65 4 3 14 16 23 30 22 33 64 92 168 235 107 148
233 325 307 435 31 47 61 88 66 91 5 3 16 18 25 32 47 71 98 143 109 155 6 6
15 21 18 32 3 11 10 20 15 20 7 0 23 21 65 90 6 9 26 36 45 60 19 24 40 51 45
61 20 32 63 95 91 131 44 56 171 230 430 588 129 179 248 338 266 354 47 43
75 33 215 -76 66 -51 135 -104 153 -118 18 -14 141 -108 274 -210 132 -102
314 -240 402 -308 96 -72 172 -138 187 -161 14 -22 38 -83 52 -137 14 -55 39
-122 57 -152 57 -94 192 -202 299 -239 54 -18 218 -20 289 -4 124 30 291 148
340 243 50 96 73 188 72 290 -1 110 -20 180 -79 278 -98 165 -278 262 -478
259 -136 -3 -132 -4 -320 141 -33 25 -99 76 -147 113 -164 125 -253 193 -433
332 -99 76 -218 167 -265 202 -131 97 -150 118 -150 162 0 47 34 118 87 181
37 44 63 78 63 83 0 8 82 129 118 174 16 21 58 81 94 133 36 52 92 131 124
175 64 86 104 141 229 313 63 87 88 114 115 123 47 17 125 15 180 -5 126 -46
481 -51 730 -11 85 14 303 86 395 130 39 18 90 41 115 52 25 10 63 32 85 49
23 17 67 45 100 63 88 48 160 113 318 284 101 108 154 180 215 287 24 41 50
86 58 100 33 55 104 208 104 225 0 19 6 39 36 130 9 28 20 73 24 100 4 28 15
88 25 135 28 136 24 366 -9 563 -34 196 -118 451 -188 563 -13 22 -30 54 -38
73 -8 19 -39 66 -70 105 -30 39 -72 94 -92 121 -41 57 -212 226 -273 271 -22
16 -42 31 -45 34 -3 3 -21 17 -40 30 -19 13 -37 27 -40 30 -9 9 -83 56 -145
92 -69 39 -329 146 -378 154 -17 3 -61 14 -97 25 -138 39 -361 54 -572 39z
m312 -670 c152 -24 220 -44 339 -101 194 -93 338 -212 476 -394 54 -72 135
-228 135 -261 0 -13 9 -47 21 -76 35 -87 48 -191 48 -368 1 -149 -2 -173 -25
-250 -14 -47 -29 -101 -33 -120 -8 -36 -50 -124 -81 -170 -9 -14 -39 -59 -66
-100 -50 -76 -251 -290 -273 -290 -7 0 -36 -15 -64 -34 -59 -39 -149 -86 -166
-86 -6 0 -40 -13 -76 -30 -36 -16 -76 -30 -88 -30 -12 0 -46 -7 -75 -14 -29
-8 -97 -18 -150 -21 -88 -7 -99 -5 -122 13 -24 19 -24 22 -12 68 7 27 19 56
27 64 44 49 73 197 54 276 -26 107 -76 170 -229 286 -47 35 -132 100 -190 144
-153 117 -180 132 -259 144 -125 20 -237 -20 -342 -121 -40 -39 -58 -49 -85
-49 -24 0 -37 6 -47 23 -27 42 -42 176 -41 362 l1 180 47 140 c58 174 65 188
141 305 77 117 185 227 273 279 37 21 76 49 87 61 23 26 63 48 125 71 25 10
65 25 90 34 78 29 196 55 315 69 59 6 191 4 245 -4z"/>
<path d="M2205 9673 c-16 -9 -32 -19 -35 -22 -13 -17 -91 -70 -140 -95 -30
-16 -75 -45 -99 -65 -86 -71 -156 -122 -187 -137 -17 -8 -40 -23 -50 -32 -58
-52 -168 -145 -234 -197 -122 -98 -564 -542 -640 -644 -14 -19 -33 -43 -43
-55 -67 -76 -103 -121 -112 -135 -5 -9 -44 -61 -85 -116 -70 -94 -200 -282
-200 -290 0 -2 -13 -23 -29 -47 -15 -24 -50 -83 -76 -133 -26 -49 -58 -106
-70 -126 -46 -72 -145 -276 -145 -298 0 -24 41 -71 62 -71 7 0 38 15 69 34 30
18 73 39 95 46 21 7 64 26 94 41 30 16 62 29 70 29 8 0 52 19 98 42 74 37 87
40 120 32 47 -11 52 -41 22 -122 -40 -103 -117 -365 -142 -482 -101 -455 -132
-854 -104 -1325 15 -252 64 -643 101 -805 9 -36 25 -110 36 -165 12 -55 25
-116 29 -135 14 -68 70 -266 100 -360 17 -52 37 -117 45 -145 44 -155 141
-425 170 -477 9 -15 24 -51 34 -80 72 -205 320 -729 471 -993 32 -55 71 -127
88 -160 17 -33 38 -71 46 -85 33 -56 125 -264 184 -415 76 -193 129 -377 188
-655 24 -112 54 -395 54 -517 0 -45 -5 -116 -11 -158 -15 -99 -3 -147 41 -165
28 -11 37 -10 99 19 37 17 74 31 82 31 8 0 33 7 56 15 39 13 182 46 323 74
127 25 250 32 495 31 143 -1 280 -3 305 -5 145 -12 268 -26 360 -44 58 -11
145 -27 195 -36 49 -9 92 -18 95 -20 4 -2 42 -11 86 -20 43 -9 100 -25 126
-35 26 -11 60 -20 76 -20 16 0 55 -9 88 -20 32 -11 75 -20 94 -20 19 0 64 -8
100 -16 36 -9 97 -20 135 -25 39 -5 86 -14 105 -20 19 -6 67 -14 105 -19 39
-4 126 -18 195 -30 108 -19 171 -23 458 -27 188 -3 332 -1 332 4 0 5 -6 33
-14 63 -35 134 -331 1295 -470 1845 -42 165 -84 317 -93 338 -11 26 -36 52
-72 78 -228 158 -251 181 -251 244 0 29 12 54 57 117 101 140 107 151 104 188
-3 41 -73 324 -292 1180 -28 107 -79 308 -114 445 -95 374 -133 519 -144 548
-16 42 -24 38 -86 -49 -17 -24 -58 -74 -136 -169 -9 -11 -39 -47 -65 -80 -27
-33 -91 -112 -142 -175 -52 -63 -137 -168 -190 -233 -54 -66 -103 -129 -111
-140 -8 -12 -36 -47 -61 -77 -26 -30 -54 -64 -63 -75 -249 -310 -251 -312
-289 -320 -49 -11 -109 28 -328 217 -227 195 -420 380 -485 463 -22 28 -78 91
-126 140 -47 50 -98 109 -112 132 -15 23 -55 77 -90 120 -35 43 -91 119 -125
168 -34 50 -79 116 -102 147 -22 32 -40 59 -40 62 0 2 -19 35 -42 72 -96 159
-157 287 -263 554 -118 296 -191 605 -214 895 -31 398 -32 453 -7 493 9 15 41
15 69 1 21 -12 268 -198 277 -210 3 -3 25 -20 49 -37 95 -68 108 -40 90 192
-25 343 8 928 81 1411 5 39 15 106 21 150 32 233 51 337 99 560 18 83 36 168
41 190 4 22 15 65 23 95 22 75 21 117 -3 130 -28 14 -71 12 -106 -7z"/>
<path d="M10995 2966 c-27 -18 -106 -62 -190 -106 -38 -20 -79 -41 -90 -47
-39 -23 -253 -123 -262 -123 -9 0 -87 -39 -123 -62 -14 -9 -43 -21 -65 -28
-22 -7 -44 -16 -50 -20 -5 -4 -39 -20 -75 -35 -36 -14 -83 -36 -105 -47 -22
-11 -71 -31 -109 -44 -38 -13 -74 -27 -80 -32 -6 -5 -31 -14 -55 -21 -24 -7
-69 -26 -101 -42 -32 -16 -62 -29 -67 -29 -5 0 -38 -11 -72 -25 -35 -15 -82
-30 -105 -35 -22 -4 -86 -24 -141 -43 -91 -32 -200 -66 -375 -116 -36 -10 -92
-24 -125 -31 -33 -6 -70 -16 -82 -20 -12 -5 -50 -12 -85 -15 -35 -4 -82 -14
-105 -22 -36 -13 -43 -20 -43 -43 0 -30 34 -69 93 -107 76 -48 242 -175 264
-201 30 -36 30 -79 1 -92 -65 -27 -379 -94 -583 -125 -182 -27 -715 -27 -779
0 -18 8 -19 5 -13 -46 3 -30 31 -162 62 -294 32 -132 65 -274 75 -315 148
-637 157 -668 188 -654 9 4 37 10 62 15 58 10 116 28 275 84 72 26 150 54 175
62 25 9 60 25 78 35 18 10 37 18 43 18 6 0 47 18 91 40 45 22 86 40 91 40 6 0
47 22 91 48 45 27 101 56 125 66 25 9 56 26 70 36 45 31 131 80 143 80 5 0 38
22 72 48 115 90 155 114 181 108 56 -14 56 -77 0 -381 -37 -195 -29 -277 27
-283 22 -3 48 17 155 122 70 68 144 137 163 153 50 40 175 167 240 243 30 36
57 67 60 70 3 3 30 34 60 70 30 36 57 67 61 70 28 24 357 488 382 540 4 8 20
35 37 60 27 42 49 82 130 240 18 36 41 76 50 90 31 44 117 214 124 245 4 17
32 82 63 145 31 63 70 158 88 210 18 52 45 127 60 165 15 39 29 81 32 95 2 14
8 34 13 45 20 49 50 143 56 177 5 29 2 40 -15 57 -24 24 -58 27 -86 7z"/>
</g>
</svg>
