<?xml version="1.0" standalone="no"?>
<!DOCTYPE svg PUBLIC "-//W3C//DTD SVG 20010904//EN"
 "http://www.w3.org/TR/2001/REC-SVG-20010904/DTD/svg10.dtd">
<svg version="1.0" xmlns="http://www.w3.org/2000/svg"
 width="279.000000pt" height="559.000000pt" viewBox="0 0 279.000000 559.000000"
 preserveAspectRatio="xMidYMid meet">

<g transform="translate(0.000000,559.000000) scale(0.100000,-0.100000)"
fill="#000000" stroke="none">
<path d="M0 2795 l0 -2795 1395 0 1395 0 0 2795 0 2796 -82 -3 -83 -3 -3 -31
c-3 -30 -5 -32 -55 -37 -28 -2 -97 -1 -152 4 -55 4 -118 9 -140 9 -22 1 -35 4
-29 6 9 4 9 11 0 29 l-11 25 -217 0 -218 0 0 -30 0 -30 -117 0 c-139 0 -223
16 -223 42 0 16 -13 18 -155 18 l-155 0 0 -30 0 -30 -156 0 c-145 0 -156 1
-161 19 -6 25 -46 32 -212 38 -113 3 -136 2 -151 -12 -47 -42 -152 -54 -299
-33 -67 9 -85 15 -89 30 -3 13 -14 18 -43 18 l-39 0 0 -2795z m412 2680 c12
-16 9 -102 -9 -234 -15 -116 -18 -127 -49 -161 -40 -44 -63 -108 -65 -175 -1
-46 -2 -47 -9 -18 -4 18 -12 39 -18 45 -5 7 -13 28 -17 46 -7 33 -29 52 -63
52 -29 0 -48 57 -61 185 -7 61 -16 143 -21 183 -6 40 -10 76 -10 80 0 11 314
8 322 -3z m704 -17 c-3 -13 -8 -81 -11 -153 -7 -129 -20 -180 -51 -198 -8 -4
-14 -17 -14 -27 0 -11 -4 -20 -9 -20 -5 0 -27 -16 -48 -36 -20 -19 -39 -31
-41 -26 -1 5 -8 17 -15 27 -11 14 -13 9 -11 -34 3 -52 -9 -69 -20 -28 -3 12
-6 46 -6 75 0 56 -10 83 -42 119 -19 21 -20 30 -13 172 l7 151 139 0 c139 0
139 0 135 -22z m669 -136 c-7 -176 -23 -244 -72 -311 -2 -3 -14 6 -28 19 -23
22 -64 22 -50 0 3 -5 1 -10 -4 -10 -6 0 -11 10 -11 23 0 33 -15 50 -37 43 -14
-5 -21 1 -30 24 -14 38 -30 38 -38 0 -4 -16 -11 -30 -16 -30 -10 0 -13 383 -3
393 4 4 72 6 151 6 l144 0 -6 -157z m717 148 l78 0 0 -185 c0 -156 -2 -187
-15 -191 -8 -4 -15 -14 -15 -24 0 -9 -9 -25 -21 -36 -17 -16 -22 -16 -29 -4
-6 8 -10 18 -10 21 0 4 -7 10 -16 13 -20 8 -71 -42 -80 -79 -9 -36 -17 -31
-37 24 -10 29 -39 73 -67 104 l-50 55 0 157 0 158 92 -7 c50 -3 126 -6 170 -6z
m225 -1687 c-6 -628 -12 -831 -42 -1228 -8 -110 -17 -236 -20 -280 -14 -205
-44 -497 -51 -505 -3 -3 -5 11 -4 30 3 57 1 80 -9 80 -5 0 -7 -9 -4 -19 3 -11
0 -28 -6 -38 -8 -14 -11 -7 -12 37 -1 30 -3 66 -4 80 -2 14 -7 64 -11 113 -4
48 -9 85 -12 83 -2 -3 -3 -64 -3 -135 2 -172 -6 -251 -28 -252 -11 0 -10 -3 7
-11 12 -6 22 -15 22 -20 0 -5 -5 -6 -11 -2 -8 5 -10 -1 -7 -20 4 -19 1 -26
-11 -26 -15 -1 -15 -1 0 -10 14 -8 16 -26 13 -117 -3 -96 -8 -173 -13 -195 0
-5 -9 -8 -18 -8 -13 0 -15 -2 -5 -8 9 -7 8 -13 -8 -27 -11 -10 -20 -28 -20
-40 0 -11 -5 -26 -12 -33 -9 -9 -9 -12 1 -12 9 0 11 -7 6 -23 -9 -30 -13 -69
-16 -151 -1 -50 -4 -64 -11 -52 -6 10 -7 96 -4 212 4 145 3 200 -7 216 -9 16
-9 22 1 25 19 7 14 29 -10 41 -18 8 -19 11 -5 11 18 1 25 21 7 21 -7 0 -7 6
-1 18 7 14 6 25 -5 41 -9 12 -16 35 -16 51 -1 17 -5 30 -10 30 -5 0 -6 5 -3
10 3 6 15 10 26 10 10 0 19 4 19 10 0 6 -9 6 -26 0 -32 -13 -47 -13 -39 0 3 6
-1 7 -9 4 -9 -3 -16 -2 -16 4 0 13 29 24 42 16 6 -4 9 -1 6 7 -3 8 -10 15 -16
15 -7 1 -16 2 -20 3 -5 0 -9 15 -10 33 0 17 -6 34 -12 38 -6 4 -18 19 -25 34
-8 15 -10 24 -5 21 6 -4 10 32 10 92 0 67 -3 93 -10 83 -13 -20 -13 -4 0 21 8
14 8 19 -1 17 -15 -4 -18 18 -33 247 l-13 190 -3 -155 c-1 -105 -4 -146 -10
-126 -5 16 -10 189 -12 385 -2 196 -5 394 -9 441 -6 92 -13 -412 -11 -772 1
-158 -2 -218 -11 -218 -8 0 -8 -3 0 -11 12 -12 5 -821 -8 -829 -4 -3 -4 -12 1
-20 13 -20 13 -43 0 -35 -5 3 -10 -1 -10 -9 0 -9 5 -16 11 -16 13 0 9 -59 -5
-78 -7 -9 -5 -16 4 -22 18 -11 6 -25 -14 -17 -11 5 -14 32 -15 139 -1 73 -3
165 -6 203 -2 39 -7 174 -10 300 -7 281 -15 401 -26 383 -6 -8 -8 2 -8 27 1
22 -3 76 -9 120 -11 82 -20 268 -24 453 -1 56 -4 102 -8 102 -6 0 -29 -321
-28 -395 0 -22 -5 -143 -10 -270 -6 -126 -14 -408 -18 -625 -4 -217 -8 -413
-10 -435 -1 -22 -3 -111 -4 -198 -1 -86 -6 -159 -10 -162 -4 -2 -6 -17 -4 -32
4 -27 3 -27 -4 -3 -7 21 -9 22 -15 7 -3 -9 -4 -23 -1 -31 3 -8 1 -17 -4 -20
-5 -3 -9 15 -9 40 0 26 5 48 12 50 17 7 14 31 -4 30 -19 -1 -17 -40 -25 439
-4 198 -9 394 -11 435 -6 104 -7 1619 -1 1629 3 4 6 43 7 87 1 43 6 87 10 96
10 18 173 138 188 138 5 0 11 4 13 8 2 4 23 23 48 42 42 32 133 127 188 196
97 122 188 286 267 479 42 103 68 154 79 155 4 0 6 -287 3 -637z m-367 217 c0
-5 -5 -10 -11 -10 -5 0 -7 5 -4 10 3 6 8 10 11 10 2 0 4 -4 4 -10z m-555
-1145 c-17 -244 -20 -278 -60 -615 -59 -501 -59 -503 -110 -1200 -11 -151 -50
-471 -70 -580 -17 -88 -63 -271 -64 -252 -1 6 -12 12 -26 12 -20 0 -25 6 -31
34 -3 19 -3 39 0 44 3 5 1 23 -4 41 -5 17 -5 29 0 26 4 -2 10 4 13 15 3 11 1
23 -4 26 -14 8 -10 24 6 24 8 0 15 5 15 10 0 6 -4 10 -10 10 -5 0 -13 12 -16
28 -4 15 -11 33 -16 39 -12 15 -2 47 12 38 5 -3 10 -2 10 4 0 5 -5 11 -11 13
-5 2 -12 16 -13 31 -2 18 1 27 8 24 6 -3 11 6 11 19 0 22 -7 29 -29 25 -4 -1
-5 10 -2 24 4 14 3 25 -1 25 -5 0 -9 26 -10 57 -3 120 -4 133 -14 128 -5 -4
-9 4 -9 17 -1 68 -41 431 -50 448 -4 8 -9 62 -10 120 -1 58 -5 151 -8 208 -4
56 -4 113 0 127 3 14 3 25 0 25 -4 0 -8 11 -8 25 -1 14 -5 33 -9 43 -5 9 -7
26 -6 37 1 11 -5 29 -13 40 -14 19 -15 18 -14 -20 1 -57 -1 -65 -12 -65 -5 0
-10 17 -10 38 -1 73 -12 172 -19 172 -13 0 -19 -217 -11 -380 4 -92 -2 -308
-7 -262 -4 34 -22 45 -24 15 -4 -54 -1 -77 11 -81 8 -3 10 0 5 8 -5 9 -4 11 3
6 19 -11 15 -36 -4 -29 -12 4 -15 2 -12 -8 3 -8 11 -13 18 -11 10 2 9 -3 -2
-20 -8 -13 -25 -24 -37 -26 -11 -2 -21 -8 -21 -13 0 -6 15 -7 38 -3 20 4 34 3
29 -2 -4 -4 -17 -9 -29 -11 -30 -5 -34 -11 -15 -26 13 -9 15 -18 8 -42 -6 -18
-10 -23 -10 -11 -1 12 -6 16 -17 12 -11 -4 -15 -2 -11 8 3 8 3 17 0 20 -12 11
-8 86 4 86 9 0 8 8 -3 28 -18 35 -18 52 0 52 8 0 18 5 22 12 5 8 0 9 -14 6
-25 -7 -29 7 -6 20 14 8 14 10 0 21 -23 19 -20 30 7 23 18 -4 20 -3 11 9 -5 8
-10 21 -9 29 1 8 3 27 3 43 2 18 8 27 20 27 15 1 15 2 -2 11 -14 9 -20 8 -27
-2 -5 -8 -8 16 -8 59 0 39 4 72 8 72 5 0 7 -11 6 -25 -2 -14 1 -25 5 -25 14 0
21 18 10 25 -8 5 -7 12 2 23 11 13 11 14 -1 7 -11 -6 -13 -4 -7 10 5 15 4 16
-8 6 -12 -10 -15 -5 -20 26 -3 21 -5 47 -4 58 3 59 -3 187 -8 182 -4 -3 -8
-98 -10 -209 -2 -112 -4 -237 -5 -278 -1 -41 -3 -69 -6 -62 -3 6 -10 9 -15 6
-7 -4 -8 -2 -4 4 3 6 -2 16 -11 22 -16 10 -16 11 3 7 17 -4 21 0 20 23 -1 22
-4 26 -14 18 -9 -8 -11 -7 -6 7 5 11 3 16 -2 12 -5 -3 -10 3 -10 13 0 10 4 16
8 14 4 -3 8 -1 8 5 0 5 -4 12 -8 15 -14 8 -14 89 0 97 9 6 7 9 -9 9 -12 0 -24
-6 -26 -12 -3 -7 -6 -4 -6 8 -1 11 6 21 14 22 8 1 21 3 28 4 7 1 13 9 13 19 0
14 -6 17 -26 13 l-25 -6 24 14 c14 7 26 19 29 27 3 8 0 11 -7 7 -6 -4 -11 -2
-11 4 0 7 -7 10 -15 6 -8 -3 -15 -1 -15 4 0 6 -4 10 -9 10 -4 0 -6 -12 -3 -27
5 -25 4 -27 -11 -14 -11 8 -17 28 -17 52 0 35 3 39 25 39 14 0 25 4 25 10 0 5
-6 7 -13 4 -30 -11 -37 24 -42 192 -3 93 -7 217 -9 275 -6 151 -1 167 59 202
47 28 50 28 63 10 13 -17 14 -17 8 4 -5 15 -2 25 11 31 17 9 18 4 15 -79 -3
-74 -1 -90 12 -95 9 -3 13 -10 10 -15 -3 -5 0 -9 5 -9 7 0 11 24 12 58 0 80 9
146 21 150 5 2 4 9 -2 17 -7 9 -6 16 5 25 13 11 14 7 10 -30 -4 -30 -2 -46 7
-52 10 -6 10 -8 1 -8 -7 0 -13 -8 -13 -17 1 -14 7 -11 29 13 22 25 32 29 47
22 18 -9 18 -8 1 5 -9 8 -17 28 -17 46 0 24 6 34 25 41 23 9 35 22 18 19 -5
-1 -14 -1 -22 0 -21 2 36 51 60 51 11 0 18 4 15 9 -6 9 71 88 136 139 18 15
50 44 70 64 40 41 54 48 44 22 -3 -9 -2 -12 5 -9 6 4 8 13 5 20 -5 15 17 38
27 28 4 -3 7 -1 7 5 0 16 41 52 52 46 4 -3 8 -2 9 3 3 30 10 46 26 61 10 9 25
31 33 47 43 89 45 88 48 -30 2 -61 -4 -213 -13 -340z m-998 49 c-3 -3 -12 -4
-19 -1 -8 3 -5 6 6 6 11 1 17 -2 13 -5z m193 -119 c0 -2 -18 -14 -40 -25 -22
-11 -40 -18 -40 -15 0 2 17 13 38 24 42 23 42 23 42 16z m-328 -35 c18 -11 29
-20 25 -20 -11 0 -67 29 -67 35 0 9 9 5 42 -15z m18 -59 c42 -7 43 -8 18 -16
-20 -5 -40 -1 -68 13 -54 26 -40 8 27 -35 30 -19 53 -37 50 -39 -2 -3 -32 12
-65 33 -50 31 -60 42 -60 65 l1 26 26 -19 c14 -11 46 -23 71 -28z m180 24
c-14 -8 -32 -14 -40 -14 -8 0 -1 6 15 14 40 18 57 18 25 0z m-61 -19 c-2 -2
-17 -6 -34 -10 -22 -5 -26 -4 -15 4 14 9 59 15 49 6z m-109 -112 c35 -18 49
-29 38 -32 -18 -3 -92 31 -103 48 -7 11 -25 4 -25 -9 0 -8 94 -51 113 -51 16
0 56 -29 41 -30 -6 0 -31 7 -54 15 -50 18 -50 18 -50 5 0 -5 7 -10 15 -10 8 0
15 -5 15 -11 0 -5 -5 -7 -10 -4 -11 7 -8 -30 3 -41 3 -3 4 -20 1 -38 l-4 -31
11 28 c8 20 8 31 -1 41 -7 9 -7 16 -1 20 5 4 13 1 16 -5 4 -5 13 -8 21 -5 8 3
14 1 14 -4 0 -15 28 -12 56 7 l25 16 -6 -64 c-4 -35 -7 -71 -6 -79 1 -8 2 -94
3 -190 1 -119 4 -157 9 -120 6 52 7 52 3 -10 -3 -36 -6 -84 -7 -107 -3 -63
-17 -52 -18 15 -1 31 -5 68 -9 82 -5 14 -6 -50 -4 -145 2 -93 0 -183 -5 -200
-5 -17 -10 -22 -10 -12 -1 10 -5 16 -10 13 -5 -3 -12 2 -15 11 -6 15 -8 15
-16 3 -12 -19 -13 -33 -1 -26 5 3 14 -1 21 -9 11 -14 10 -14 -11 -7 -13 5 -33
8 -44 6 -18 -2 -18 -1 -4 9 11 8 14 18 8 32 -4 11 -8 15 -8 9 -1 -6 -12 -9
-25 -7 -19 4 -23 11 -22 34 1 16 -1 29 -6 29 -9 0 -9 -57 0 -120 6 -33 9 -40
15 -27 4 11 5 23 2 28 -4 5 1 6 9 3 9 -3 13 -10 10 -15 -3 -5 2 -12 10 -15 9
-3 16 -11 16 -16 0 -6 -6 -8 -13 -5 -25 10 -42 -12 -54 -70 l-12 -58 3 65 c1
35 -1 83 -5 105 -4 22 -10 126 -14 230 -4 105 -9 192 -10 195 -2 3 -4 98 -6
210 -1 151 1 204 9 203 14 -3 16 9 3 23 -5 5 -13 45 -16 88 l-7 79 33 -25 c19
-14 59 -38 89 -54z m61 59 c13 -15 12 -15 -8 -4 -24 12 -29 21 -14 21 5 0 15
-7 22 -17z m19 -87 c0 -3 -4 -8 -10 -11 -5 -3 -10 -1 -10 4 0 6 5 11 10 11 6
0 10 -2 10 -4z m177 -146 c-1 -77 -4 -140 -8 -140 -3 0 -9 -51 -12 -112 -4
-62 -10 -129 -13 -148 -3 -19 -6 -62 -7 -95 -2 -51 -5 -60 -19 -57 -15 2 -18
-5 -19 -40 -1 -24 -1 -47 0 -52 1 -4 -2 -18 -6 -30 -12 -35 -21 43 -23 199 -1
77 -5 185 -9 240 -11 140 -6 298 9 303 9 3 9 6 0 12 -7 4 0 12 20 20 28 12 33
11 42 -3 10 -19 28 -23 28 -6 0 5 -4 8 -9 5 -5 -3 -11 1 -15 9 -4 13 17 34 35
35 4 0 6 -63 6 -140z m-144 103 c-7 -2 -19 -2 -25 0 -7 3 -2 5 12 5 14 0 19
-2 13 -5z m134 -455 c-3 -8 -6 -5 -6 6 -1 11 2 17 5 13 3 -3 4 -12 1 -19z
m-114 -240 c5 -16 9 -263 3 -257 -2 2 -7 47 -11 99 -4 52 -8 112 -10 133 -3
35 8 51 18 25z m78 -29 c-9 -23 -10 -22 -10 11 -1 23 2 31 9 24 7 -7 7 -19 1
-35z m1410 4 c5 -86 5 -173 0 -173 -6 0 -11 39 -14 133 -1 31 1 57 5 57 5 0 8
-8 9 -17z m274 -12 c3 -5 1 -12 -5 -16 -5 -3 -10 1 -10 9 0 18 6 21 15 7z m20
-42 c-10 -15 -25 -10 -19 6 4 8 10 12 15 9 5 -3 7 -10 4 -15z m-1705 -11 c0
-16 -3 -19 -11 -11 -6 6 -8 16 -5 22 11 17 16 13 16 -11z m126 -58 c3 -25 1
-28 -10 -18 -10 9 -11 17 -4 26 7 8 7 12 -1 12 -7 0 -9 5 -6 11 10 15 17 4 21
-31z m1574 19 c0 -11 -4 -18 -10 -14 -5 3 -7 12 -3 20 7 21 13 19 13 -6z
m-1712 -116 c-5 -43 -6 -83 -4 -90 3 -7 1 -15 -4 -18 -6 -4 -10 9 -11 27 -1
18 -3 50 -4 70 -2 21 0 40 6 43 5 4 7 11 3 16 -3 5 -10 7 -15 4 -13 -9 -11 12
4 35 23 38 34 0 25 -87z m1459 95 c-2 -7 0 -23 4 -36 6 -14 5 -30 -1 -40 -10
-19 -11 -16 -15 46 -2 23 1 42 7 42 5 0 8 -6 5 -12z m-1627 -43 c0 -8 5 -15
10 -15 6 0 10 4 10 10 0 5 7 7 15 4 17 -7 20 -52 4 -74 -8 -11 -9 -7 -5 17 6
37 -3 48 -22 27 -7 -8 -9 -14 -5 -14 5 0 10 -10 10 -22 1 -13 7 -24 13 -26 17
-6 11 -18 -9 -18 -11 0 -18 3 -15 7 8 13 -23 18 -37 6 -7 -7 -6 -3 4 9 9 11
14 23 11 27 -8 7 -34 -17 -34 -32 0 -5 -5 -13 -11 -16 -21 -14 -3 29 25 58 26
27 27 32 12 42 -22 16 -20 25 4 25 11 0 20 -7 20 -15z m210 0 c0 -8 -7 -15
-16 -15 -14 0 -14 3 -4 15 7 8 14 15 16 15 2 0 4 -7 4 -15z m90 -10 c0 -8 -2
-15 -4 -15 -2 0 -6 7 -10 15 -3 8 -1 15 4 15 6 0 10 -7 10 -15z m1570 -5 c0
-5 -5 -10 -11 -10 -5 0 -7 5 -4 10 3 6 8 10 11 10 2 0 4 -4 4 -10z m-1467 -30
c-7 -28 -13 -25 -13 6 0 14 4 23 9 20 5 -3 7 -15 4 -26z m-458 -10 c3 -5 -1
-10 -10 -10 -9 0 -13 5 -10 10 3 6 8 10 10 10 2 0 7 -4 10 -10z m175 -86 c0
-17 -4 -22 -15 -18 -8 4 -15 17 -15 30 0 17 4 22 15 18 8 -4 15 -17 15 -30z
m-160 12 c0 -11 -19 -15 -25 -6 -3 5 1 10 9 10 9 0 16 -2 16 -4z m77 -28 c-3
-7 -5 -2 -5 12 0 14 2 19 5 13 2 -7 2 -19 0 -25z m1583 7 c0 -8 -4 -15 -10
-15 -5 0 -7 7 -4 15 4 8 8 15 10 15 2 0 4 -7 4 -15z m-1612 -13 c6 -18 -15
-14 -22 4 -4 10 -1 14 6 12 6 -2 14 -10 16 -16z m-58 4 c0 -3 -4 -8 -10 -11
-5 -3 -10 -1 -10 4 0 6 5 11 10 11 6 0 10 -2 10 -4z m214 -31 c-4 -8 -8 -15
-10 -15 -2 0 -4 7 -4 15 0 8 4 15 10 15 5 0 7 -7 4 -15z m1456 5 c0 -5 -5 -10
-11 -10 -5 0 -7 5 -4 10 3 6 8 10 11 10 2 0 4 -4 4 -10z m-1585 -42 c-3 -24
-7 -76 -9 -116 -4 -78 -8 -88 -26 -77 -9 6 -9 10 1 16 12 8 12 10 0 18 -8 5
-12 19 -9 35 4 20 1 26 -13 26 -11 0 -19 -7 -19 -16 0 -19 -22 -14 -28 7 -3
12 -2 12 6 0 8 -11 11 -9 17 8 5 16 12 20 27 15 14 -4 18 -2 14 5 -4 6 0 11
10 11 16 0 16 1 -2 15 -12 10 -14 14 -5 13 8 -2 17 6 19 16 3 15 0 17 -14 12
-18 -6 -18 -5 -1 8 9 7 17 17 17 21 0 4 -8 4 -17 1 -15 -5 -15 -4 1 9 31 24
38 18 31 -27z m85 32 c0 -5 -2 -10 -4 -10 -3 0 -8 5 -11 10 -3 6 -1 10 4 10 6
0 11 -4 11 -10z m-213 -30 c0 -16 -4 -30 -9 -30 -10 0 -11 44 -1 53 9 10 10
10 10 -23z m210 -12 c-3 -8 -6 -5 -6 6 -1 11 2 17 5 13 3 -3 4 -12 1 -19z
m-147 -4 c0 -8 -4 -12 -10 -9 -5 3 -10 10 -10 16 0 5 5 9 10 9 6 0 10 -7 10
-16z m-25 -3 c3 -5 1 -12 -5 -16 -5 -3 -10 1 -10 9 0 18 6 21 15 7z m173 -36
c0 -20 -3 -23 -14 -14 -16 13 -19 33 -4 24 6 -3 10 -1 10 4 0 6 2 11 4 11 2 0
4 -11 4 -25z m-208 -1 c0 -8 -5 -12 -10 -9 -6 4 -8 11 -5 16 9 14 15 11 15 -7z
m250 6 c0 -5 -5 -10 -11 -10 -5 0 -7 5 -4 10 3 6 8 10 11 10 2 0 4 -4 4 -10z
m-180 -9 c0 -11 -31 -24 -39 -16 -3 3 1 10 9 15 19 12 30 12 30 1z m-73 -63
c-3 -7 -5 -2 -5 12 0 14 2 19 5 13 2 -7 2 -19 0 -25z m208 22 c3 -5 1 -10 -4
-10 -6 0 -11 5 -11 10 0 6 2 10 4 10 3 0 8 -4 11 -10z m1675 0 c0 -5 -4 -10
-10 -10 -5 0 -10 5 -10 10 0 6 5 10 10 10 6 0 10 -4 10 -10z m-5 -40 c3 -5 -3
-10 -14 -10 -12 0 -21 5 -21 10 0 6 6 10 14 10 8 0 18 -4 21 -10z m-1878 -62
c-3 -8 -6 -5 -6 6 -1 11 2 17 5 13 3 -3 4 -12 1 -19z m690 -10 c-3 -7 -5 -2
-5 12 0 14 2 19 5 13 2 -7 2 -19 0 -25z m-583 -32 c-3 -11 -12 -28 -20 -36
-12 -12 -14 -12 -14 1 0 8 5 20 11 26 8 8 8 13 0 17 -19 12 -12 24 9 19 16 -4
19 -11 14 -27z m389 -44 c-1 -26 3 -51 7 -57 4 -5 2 -16 -6 -23 -12 -11 -14
-1 -14 64 0 43 3 74 7 71 3 -4 6 -28 6 -55z m37 4 c-5 -22 -6 -44 -3 -49 3 -5
0 -7 -8 -5 -8 3 -12 12 -10 19 4 16 8 45 10 74 1 12 4 16 11 9 5 -5 6 -24 0
-48z m-533 -8 c-3 -7 -5 -2 -5 12 0 14 2 19 5 13 2 -7 2 -19 0 -25z m210 -10
c-3 -8 -6 -5 -6 6 -1 11 2 17 5 13 3 -3 4 -12 1 -19z m-164 -3 c-3 -9 -8 -14
-10 -11 -3 3 -2 9 2 15 9 16 15 13 8 -4z m57 -6 c0 -6 -7 -9 -15 -5 -8 3 -15
1 -15 -5 0 -5 7 -12 15 -15 8 -4 15 -10 15 -16 0 -5 -4 -7 -9 -4 -5 4 -11 0
-14 -6 -2 -7 -8 -1 -12 14 -4 15 -4 32 0 37 8 14 35 14 35 0z m-90 -34 c0 -8
-2 -15 -4 -15 -2 0 -6 7 -10 15 -3 8 -1 15 4 15 6 0 10 -7 10 -15z m677 -52
c-2 -16 -4 -5 -4 22 0 28 2 40 4 28 2 -13 2 -35 0 -50z m-680 -35 c-2 -13 -4
-5 -4 17 -1 22 1 32 4 23 2 -10 2 -28 0 -40z m1553 43 c0 -6 -5 -13 -10 -16
-6 -4 -8 -9 -6 -13 2 -4 7 -24 10 -45 5 -29 3 -38 -6 -34 -7 2 -12 13 -10 25
2 11 -1 23 -7 26 -6 4 -5 17 2 36 11 28 27 41 27 21z m-1063 -17 c-3 -4 -2
-15 4 -25 7 -14 6 -19 -2 -19 -7 0 -9 -10 -6 -25 3 -16 0 -24 -7 -22 -6 2 -10
15 -9 28 2 13 3 34 4 47 1 12 6 22 12 22 6 0 7 -3 4 -6z m-440 -46 c-3 -8 -6
-5 -6 6 -1 11 2 17 5 13 3 -3 4 -12 1 -19z m630 -15 c-3 -10 -5 -4 -5 12 0 17
2 24 5 18 2 -7 2 -21 0 -30z m1118 18 c3 -5 1 -12 -5 -16 -5 -3 -10 1 -10 9 0
18 6 21 15 7z m-1798 -68 c-3 -10 -5 -2 -5 17 0 19 2 27 5 18 2 -10 2 -26 0
-35z m43 38 c0 -6 -4 -12 -8 -15 -5 -3 -9 1 -9 9 0 8 4 15 9 15 4 0 8 -4 8 -9z
m30 2 c-1 -17 -26 -48 -40 -51 -10 -3 -8 4 8 20 12 14 19 28 15 31 -3 4 -1 7
5 7 7 0 12 -3 12 -7z m401 -56 c-10 -9 -11 -8 -5 6 3 10 9 15 12 12 3 -3 0
-11 -7 -18z m1069 19 c0 -3 -4 -8 -10 -11 -5 -3 -10 -1 -10 4 0 6 5 11 10 11
6 0 10 -2 10 -4z m-1500 -36 c0 -5 -4 -10 -10 -10 -5 0 -10 5 -10 10 0 6 5 10
10 10 6 0 10 -4 10 -10z m1504 -5 c3 -8 1 -15 -4 -15 -6 0 -10 7 -10 15 0 8 2
15 4 15 2 0 6 -7 10 -15z m-1510 -110 c-4 -8 -8 -15 -10 -15 -2 0 -4 7 -4 15
0 8 4 15 10 15 5 0 7 -7 4 -15z m1503 -147 c-3 -8 -6 -5 -6 6 -1 11 2 17 5 13
3 -3 4 -12 1 -19z m-197 -17 c0 -5 -7 -14 -15 -21 -16 -14 -18 -10 -9 14 6 17
24 22 24 7z m-9 -74 c-6 -6 -14 -7 -18 -2 -5 4 -2 10 5 12 6 3 13 12 13 21 1
14 2 14 6 -2 3 -10 0 -23 -6 -29z m-1271 -157 c0 -5 -2 -10 -4 -10 -3 0 -8 5
-11 10 -3 6 -1 10 4 10 6 0 11 -4 11 -10z"/>
<path d="M2061 2784 c0 -11 3 -14 6 -6 3 7 2 16 -1 19 -3 4 -6 -2 -5 -13z"/>
<path d="M2542 2730 c0 -14 2 -19 5 -12 2 6 2 18 0 25 -3 6 -5 1 -5 -13z"/>
<path d="M2541 2684 c0 -11 3 -14 6 -6 3 7 2 16 -1 19 -3 4 -6 -2 -5 -13z"/>
<path d="M2252 2550 c0 -14 2 -19 5 -12 2 6 2 18 0 25 -3 6 -5 1 -5 -13z"/>
<path d="M2541 2544 c0 -11 3 -14 6 -6 3 7 2 16 -1 19 -3 4 -6 -2 -5 -13z"/>
<path d="M2555 2429 c-4 -6 -5 -12 -2 -15 2 -3 7 2 10 11 7 17 1 20 -8 4z"/>
<path d="M2530 2360 c0 -5 5 -10 10 -10 6 0 10 -5 10 -11 0 -5 -4 -7 -10 -4
-16 10 -12 -11 5 -25 12 -10 15 -9 15 8 0 11 -3 27 -6 36 -7 18 -24 22 -24 6z"/>
<path d="M2545 2210 c3 -5 8 -10 11 -10 2 0 4 5 4 10 0 6 -5 10 -11 10 -5 0
-7 -4 -4 -10z"/>
<path d="M2467 1406 c-3 -8 1 -17 9 -20 23 -9 34 -7 34 5 0 6 -7 8 -16 5 -12
-4 -15 -2 -10 9 3 8 1 15 -3 15 -5 0 -11 -6 -14 -14z"/>
<path d="M1956 861 c-4 -5 1 -8 9 -7 21 3 31 16 12 16 -9 0 -18 -4 -21 -9z"/>
<path d="M1700 3060 c0 -5 5 -10 11 -10 5 0 7 5 4 10 -3 6 -8 10 -11 10 -2 0
-4 -4 -4 -10z"/>
<path d="M1035 2580 c-3 -5 -1 -10 4 -10 6 0 11 5 11 10 0 6 -2 10 -4 10 -3 0
-8 -4 -11 -10z"/>
<path d="M1230 2580 c0 -5 7 -7 15 -4 8 4 15 8 15 10 0 2 -7 4 -15 4 -8 0 -15
-4 -15 -10z"/>
<path d="M1200 2551 c0 -6 5 -13 10 -16 6 -3 10 1 10 9 0 9 -4 16 -10 16 -5 0
-10 -4 -10 -9z"/>
<path d="M1091 2503 c1 -34 2 -35 9 -13 11 36 11 50 0 50 -5 0 -10 -17 -9 -37z"/>
<path d="M1207 2490 c-3 -11 -1 -20 4 -20 4 0 6 -8 3 -17 -5 -15 -4 -16 5 -3
13 18 15 60 2 60 -5 0 -11 -9 -14 -20z"/>
<path d="M1004 2420 c0 -11 4 -20 8 -20 4 0 8 9 8 20 0 11 -4 20 -8 20 -4 0
-8 -9 -8 -20z"/>
<path d="M1155 2410 c-3 -5 -1 -10 4 -10 6 0 11 5 11 10 0 6 -2 10 -4 10 -3 0
-8 -4 -11 -10z"/>
<path d="M1222 2392 c8 -21 16 -28 22 -22 7 7 3 18 -12 32 l-22 22 12 -32z"/>
<path d="M1030 2380 c-18 -12 -2 -12 25 0 13 6 15 9 5 9 -8 0 -22 -4 -30 -9z"/>
<path d="M1150 2360 c-9 -6 -10 -10 -3 -10 6 0 15 5 18 10 8 12 4 12 -15 0z"/>
<path d="M1200 2349 c0 -5 5 -7 10 -4 6 3 10 8 10 11 0 2 -4 4 -10 4 -5 0 -10
-5 -10 -11z"/>
<path d="M995 2310 c4 -6 11 -8 16 -5 14 9 11 15 -7 15 -8 0 -12 -5 -9 -10z"/>
<path d="M1110 2290 c-30 -10 -65 -19 -77 -19 -20 -1 -40 -17 -31 -26 6 -6 91
16 103 26 5 5 16 9 25 9 8 0 24 7 34 15 25 19 14 18 -54 -5z"/>
<path d="M1218 2155 c-3 -14 -1 -25 3 -25 5 0 9 11 9 25 0 14 -2 25 -4 25 -2
0 -6 -11 -8 -25z"/>
<path d="M1270 2040 c0 -5 5 -10 11 -10 5 0 7 5 4 10 -3 6 -8 10 -11 10 -2 0
-4 -4 -4 -10z"/>
<path d="M1030 1966 c0 -2 7 -9 15 -16 13 -11 14 -10 9 4 -5 14 -24 23 -24 12z"/>
<path d="M1000 1889 c0 -5 4 -8 9 -4 5 3 12 1 16 -5 4 -6 11 -8 16 -4 5 3 7
10 4 15 -8 13 -45 11 -45 -2z"/>
<path d="M1061 1704 c0 -11 3 -14 6 -6 3 7 2 16 -1 19 -3 4 -6 -2 -5 -13z"/>
<path d="M1140 1660 c0 -5 5 -10 10 -10 6 0 10 5 10 10 0 6 -4 10 -10 10 -5 0
-10 -4 -10 -10z"/>
<path d="M1160 1370 c0 -5 7 -10 16 -10 8 0 12 5 9 10 -3 6 -10 10 -16 10 -5
0 -9 -4 -9 -10z"/>
<path d="M1471 304 c0 -11 3 -14 6 -6 3 7 2 16 -1 19 -3 4 -6 -2 -5 -13z"/>
<path d="M1495 290 c-3 -5 -1 -10 4 -10 6 0 11 5 11 10 0 6 -2 10 -4 10 -3 0
-8 -4 -11 -10z"/>
<path d="M600 2554 c0 -8 5 -12 10 -9 6 3 10 -1 10 -9 0 -8 4 -18 10 -21 6 -3
7 1 4 9 -4 10 -1 16 7 16 8 0 5 6 -7 15 -25 19 -34 19 -34 -1z"/>
<path d="M770 2373 c0 -4 5 -15 10 -23 8 -13 10 -13 10 2 0 9 -4 20 -10 23 -5
3 -10 3 -10 -2z"/>
<path d="M773 2314 c-17 -17 -16 -24 1 -24 19 0 27 13 18 27 -5 7 -11 7 -19
-3z"/>
<path d="M710 2270 c0 -5 5 -10 11 -10 5 0 7 5 4 10 -3 6 -8 10 -11 10 -2 0
-4 -4 -4 -10z"/>
<path d="M779 2258 c-6 -35 -4 -78 5 -75 14 4 18 65 5 73 -5 3 -9 4 -10 2z"/>
<path d="M620 2168 c0 -4 4 -8 9 -8 6 0 12 4 15 8 3 5 -1 9 -9 9 -8 0 -15 -4
-15 -9z"/>
<path d="M775 2161 c-3 -5 -1 -12 5 -16 5 -3 10 1 10 9 0 18 -6 21 -15 7z"/>
<path d="M615 2100 c2 -27 10 -33 12 -10 1 11 -2 22 -6 24 -4 3 -7 -4 -6 -14z"/>
<path d="M702 2035 c-11 -25 -6 -59 7 -50 7 4 14 75 7 75 -1 0 -8 -11 -14 -25z"/>
<path d="M610 2040 c0 -5 5 -10 10 -10 6 0 10 5 10 10 0 6 -4 10 -10 10 -5 0
-10 -4 -10 -10z"/>
<path d="M623 2006 c-6 -8 -10 -16 -8 -18 3 -2 5 -18 7 -36 3 -45 12 -30 13
23 0 25 0 45 0 45 0 -1 -5 -7 -12 -14z"/>
<path d="M730 1985 c-7 -9 -8 -15 -2 -15 5 0 12 7 16 15 3 8 4 15 2 15 -2 0
-9 -7 -16 -15z"/>
<path d="M706 1935 c8 -19 -14 -47 -30 -39 -6 3 -4 0 4 -8 19 -17 24 -54 5
-38 -8 7 -16 7 -19 2 -11 -17 37 -21 58 -5 15 11 16 14 4 10 -16 -6 -17 -1
-12 43 3 32 1 50 -5 50 -6 0 -8 -7 -5 -15z"/>
<path d="M755 1919 c-4 -6 -5 -12 -2 -15 2 -3 7 2 10 11 7 17 1 20 -8 4z"/>
<path d="M620 1854 c0 -60 12 -69 15 -12 0 18 3 39 6 47 2 7 -2 16 -8 18 -10
3 -13 -11 -13 -53z"/>
<path d="M746 1844 c-4 -9 -4 -19 -1 -22 2 -3 7 3 11 12 4 9 4 19 1 22 -2 3
-7 -3 -11 -12z"/>
<path d="M700 1790 c6 -11 9 -24 6 -29 -3 -4 -2 -20 2 -35 7 -25 9 -27 21 -12
11 13 11 16 0 16 -11 0 -11 2 1 10 13 8 13 11 1 19 -8 5 -11 16 -8 26 4 9 3
14 -3 10 -6 -3 -10 -1 -10 4 0 6 -5 11 -10 11 -7 0 -7 -7 0 -20z"/>
<path d="M741 1804 c-1 -18 26 -37 34 -24 3 5 0 10 -9 10 -8 0 -17 6 -19 13
-4 7 -6 8 -6 1z"/>
<path d="M629 1783 c-12 -16 -12 -17 1 -7 8 6 22 14 30 17 13 5 12 6 -1 6 -9
1 -23 -7 -30 -16z"/>
<path d="M675 1750 c3 -5 8 -10 11 -10 2 0 4 5 4 10 0 6 -5 10 -11 10 -5 0 -7
-4 -4 -10z"/>
<path d="M882 2490 c0 -14 2 -19 5 -12 2 6 2 18 0 25 -3 6 -5 1 -5 -13z"/>
<path d="M861 2463 c-1 -6 -4 -20 -7 -30 -5 -17 -5 -17 6 0 6 10 9 23 6 30 -3
9 -5 9 -5 0z"/>
<path d="M883 2380 c0 -41 2 -58 4 -37 2 20 2 54 0 75 -2 20 -4 3 -4 -38z"/>
<path d="M922 2438 c-14 -14 -16 -42 -3 -34 7 5 23 46 17 46 -1 0 -7 -5 -14
-12z"/>
<path d="M850 2390 c0 -5 5 -10 10 -10 6 0 10 5 10 10 0 6 -4 10 -10 10 -5 0
-10 -4 -10 -10z"/>
<path d="M916 2327 c3 -10 9 -15 12 -12 3 3 0 11 -7 18 -10 9 -11 8 -5 -6z"/>
<path d="M850 2293 c0 -14 2 -15 9 -4 7 11 11 10 20 -5 6 -11 11 -14 11 -8 0
12 -20 34 -32 34 -4 0 -8 -8 -8 -17z"/>
<path d="M919 2298 c-7 -17 -6 -57 2 -52 6 3 8 12 5 19 -2 7 1 18 7 24 8 8 8
11 -1 11 -7 0 -13 -1 -13 -2z"/>
<path d="M876 1949 c4 -8 7 -26 5 -41 -3 -29 14 -46 23 -23 7 18 -8 60 -25 71
-8 5 -9 3 -3 -7z"/>
</g>
</svg>
