<?xml version="1.0" standalone="no"?>
<!DOCTYPE svg PUBLIC "-//W3C//DTD SVG 20010904//EN"
 "http://www.w3.org/TR/2001/REC-SVG-20010904/DTD/svg10.dtd">
<svg version="1.0" xmlns="http://www.w3.org/2000/svg"
 width="280.000000pt" height="559.000000pt" viewBox="0 0 280.000000 559.000000"
 preserveAspectRatio="xMidYMid meet">

<g transform="translate(0.000000,559.000000) scale(0.100000,-0.100000)"
fill="#000000" stroke="none">
<path d="M0 2796 l0 -2796 1400 0 1400 0 0 2790 c0 2752 0 2790 -19 2790 -11
0 -50 -6 -88 -14 -113 -24 -260 -38 -318 -31 -49 7 -55 10 -55 31 l0 24 -133
0 c-131 0 -134 0 -133 -22 1 -30 -25 -36 -171 -37 -130 -1 -155 3 -147 24 4
11 -14 15 -83 19 -48 2 -108 8 -133 12 -41 6 -43 5 -31 -10 9 -10 10 -20 5
-26 -5 -4 -70 -9 -144 -10 -192 -3 -189 -4 -202 25 -10 23 -16 25 -85 25 l-73
0 0 -29 0 -29 -96 -7 c-157 -12 -280 4 -223 29 21 9 15 11 -41 13 -36 2 -75 8
-87 15 -27 13 -35 8 -37 -26 -1 -23 -5 -25 -61 -30 -33 -3 -98 -4 -145 -2 -47
1 -111 3 -142 4 -54 2 -57 3 -60 30 -3 25 -7 27 -50 30 l-48 3 0 -2795z m1425
2714 c-22 -4 -49 -4 -60 1 -13 5 0 8 40 7 56 0 58 -1 20 -8z m1295 -17 c0 -10
-4 -34 -10 -53 -11 -43 -17 -94 -26 -237 -6 -101 -9 -114 -34 -142 -35 -41
-60 -113 -61 -176 l-1 -50 -8 45 c-10 54 -35 126 -55 157 -12 17 -20 21 -37
14 -17 -6 -27 -2 -44 16 -24 26 -44 145 -44 269 0 38 -5 87 -10 109 -5 22 -7
42 -4 45 3 3 69 8 147 11 78 3 152 6 165 7 15 1 22 -3 22 -15z m-1220 -40 c0
-27 -6 -79 -14 -118 -8 -38 -18 -118 -21 -176 -8 -126 -13 -138 -46 -115 -43
30 -74 21 -103 -28 -15 -25 -31 -48 -36 -51 -6 -4 -24 22 -40 57 -32 69 -60
249 -60 382 l0 73 153 10 c83 5 155 10 160 11 4 1 7 -19 7 -45z m446 37 l93 0
-25 -44 c-22 -40 -25 -55 -23 -138 3 -148 -11 -199 -78 -287 -20 -26 -33 -56
-34 -75 -1 -28 -2 -26 -12 14 -18 70 -56 129 -78 123 -11 -3 -19 -3 -19 0 0 3
-9 68 -20 144 -12 76 -20 169 -18 207 l3 68 59 -6 c32 -3 101 -6 152 -6z
m-977 -208 c-1 -108 -4 -226 -8 -262 l-7 -65 -19 34 c-11 18 -28 43 -37 55
-16 20 -18 20 -34 4 -16 -15 -19 -15 -55 9 -66 43 -79 76 -89 215 -5 68 -12
142 -16 165 l-6 42 128 3 c71 2 132 2 137 0 4 -2 6 -92 6 -200z m-449 123 c3
-38 3 -96 0 -128 -3 -32 -2 -61 2 -63 4 -3 8 -47 8 -97 -1 -72 -3 -88 -12 -73
-7 12 -9 47 -5 94 6 85 -2 84 -28 -5 -12 -43 -24 -65 -37 -69 -28 -8 -58 -63
-58 -104 l0 -35 -19 41 c-20 43 -76 94 -104 94 -9 0 -19 -11 -23 -25 -3 -14
-8 -25 -10 -25 -9 0 -73 68 -103 110 l-31 43 0 139 c0 105 3 143 14 153 16 16
63 20 256 20 l145 0 5 -70z m1777 -92 c-3 -10 -5 -4 -5 12 0 17 2 24 5 18 2
-7 2 -21 0 -30z m-2128 -1113 c123 -244 258 -432 420 -588 53 -51 85 -90 83
-100 -2 -14 -1 -14 7 -3 8 12 15 9 43 -14 18 -15 42 -42 52 -59 17 -29 19 -29
26 -11 8 21 17 -37 23 -145 3 -53 3 -52 5 13 1 37 7 67 12 67 6 0 10 -5 10
-12 0 -6 3 -9 6 -6 3 3 18 -6 34 -21 l29 -26 9 -210 c5 -116 10 -615 10 -1109
1 -742 -1 -902 -12 -915 -7 -9 -16 -31 -20 -50 -5 -27 -4 -31 8 -22 7 6 12 22
10 36 -1 14 2 25 7 25 6 0 9 -18 7 -40 -1 -23 -7 -40 -14 -40 -6 0 -15 -7 -18
-16 -4 -11 -2 -15 8 -11 15 6 34 -29 22 -40 -3 -4 -6 2 -6 13 -1 16 -3 16 -14
-5 l-14 -25 -5 30 c-3 16 -6 47 -7 69 -5 137 -27 477 -33 508 -1 6 -5 15 -10
18 -4 3 -7 266 -7 585 0 455 -3 581 -13 581 -9 0 -11 -95 -9 -441 2 -243 1
-438 -4 -433 -10 10 -12 34 -13 177 -1 69 -5 120 -9 113 -5 -8 -12 -3 -19 17
-6 17 -7 28 -2 24 12 -7 11 10 -2 23 -10 10 -13 37 -24 207 -3 49 -8 92 -9 95
-2 3 -7 51 -11 107 -4 55 -12 143 -19 195 -6 52 -13 157 -15 234 -1 77 -5 142
-8 145 -5 4 1 -709 10 -1313 1 -71 -1 -131 -5 -134 -5 -2 -8 9 -8 25 0 16 -7
49 -15 72 -19 54 -19 69 1 44 15 -18 15 -18 5 3 -15 30 -14 136 1 151 8 8 8
12 1 12 -14 0 -24 52 -12 66 6 8 4 14 -7 18 -14 5 -15 0 -10 -36 10 -70 7 -91
-17 -117 -12 -14 -14 -19 -4 -12 17 13 22 8 19 -20 -1 -3 -3 -24 -6 -47 -3
-26 -1 -40 5 -37 5 4 9 2 9 -4 0 -5 -4 -12 -9 -15 -4 -3 -7 -23 -6 -45 2 -36
1 -39 -16 -30 -13 6 -19 6 -19 -1 0 -5 5 -10 11 -10 6 0 8 -17 5 -47 -3 -27
-6 -124 -6 -217 0 -93 -3 -166 -6 -163 -3 3 -7 72 -10 154 -11 466 -16 633
-19 673 -2 25 -4 121 -4 214 -1 93 -4 167 -7 163 -4 -3 -8 -68 -10 -144 -3
-76 -9 -142 -13 -146 -5 -5 -7 -15 -4 -23 2 -7 -1 -39 -8 -71 -14 -68 -21
-139 -20 -206 1 -34 -3 -49 -14 -53 -8 -4 -15 -14 -14 -23 0 -10 2 -11 6 -3
12 29 22 7 25 -57 2 -38 0 -67 -4 -64 -5 2 -8 14 -8 26 0 19 -2 18 -16 -8 -8
-16 -14 -44 -12 -62 1 -17 0 -34 -3 -38 -3 -3 -3 -24 0 -48 3 -23 3 -60 0 -82
l-6 -40 -2 45 c-1 25 -4 63 -6 85 -2 22 -6 93 -10 158 -4 64 -12 120 -17 123
-6 4 -6 9 -1 13 10 7 5 113 -6 107 -6 -4 -6 -121 0 -136 2 -6 2 -14 13 -378 6
-193 6 -262 -3 -262 -6 0 -11 15 -11 33 -4 240 -12 551 -20 707 -9 192 -24
547 -35 830 -2 80 -5 199 -5 264 0 66 -3 117 -6 114 -3 -4 -5 -280 -4 -614 0
-334 -1 -606 -4 -604 -6 7 -15 87 -17 160 -2 61 -2 63 -8 20 -3 -25 -6 -87 -6
-137 0 -51 -3 -93 -7 -93 -8 0 -11 28 -13 125 -2 76 -4 87 -15 80 -6 -3 -10
-1 -10 4 0 6 6 11 13 11 7 0 8 3 2 8 -14 10 -18 102 -5 102 6 0 4 10 -5 23 -8
13 -12 27 -8 32 5 4 2 5 -5 1 -11 -7 -12 21 -2 69 1 6 2 24 0 40 -1 26 -3 27
-10 10 -13 -31 -12 -165 2 -165 7 0 6 -6 -4 -17 -12 -15 -15 -59 -17 -237 -1
-121 -4 -223 -6 -226 -2 -4 -5 -60 -6 -126 -1 -97 -4 -121 -18 -131 -15 -12
-14 -12 2 -7 15 6 17 2 13 -32 -5 -37 -19 -309 -18 -346 1 -10 -6 -18 -14 -18
-10 0 -14 -11 -12 -42 1 -37 2 -39 5 -10 2 17 9 32 15 32 15 0 2 -211 -13
-221 -8 -5 -8 -8 0 -13 6 -4 11 -12 11 -19 0 -7 -5 -6 -14 3 -10 11 -15 64
-20 210 -4 107 -11 251 -16 320 -5 69 -12 190 -15 270 -7 191 -16 366 -21 411
-2 20 -8 177 -14 349 -6 172 -17 443 -26 604 -15 287 -27 1308 -16 1416 l5 55
16 -40 c9 -21 54 -114 100 -205z m861 -967 c1 -5 26 -35 57 -68 31 -33 49 -51
42 -40 -10 14 -4 11 19 -8 19 -15 37 -25 42 -22 9 6 21 -20 16 -37 -1 -7 -1
-10 1 -5 3 4 8 7 12 7 14 0 67 -55 79 -82 6 -16 16 -28 22 -28 6 0 10 -10 8
-22 -2 -15 2 -22 11 -20 7 1 21 -6 31 -18 9 -11 22 -20 29 -20 6 0 11 -4 11
-10 0 -15 -17 -12 -37 5 -83 71 -103 86 -103 78 0 -16 275 -287 328 -323 58
-39 63 -49 64 -120 0 -35 4 -50 13 -50 25 0 27 -42 19 -309 -9 -312 -7 -277
-18 -288 -5 -5 -7 1 -3 15 3 12 2 22 -1 22 -8 0 -7 109 1 117 4 3 2 14 -3 23
-10 18 -10 110 0 110 3 0 4 46 3 102 -1 121 -1 123 -8 116 -3 -3 -10 -74 -15
-159 -6 -85 -12 -183 -14 -219 -6 -93 -21 -472 -19 -490 1 -8 -2 -94 -7 -190
-5 -96 -12 -229 -15 -295 -3 -66 -10 -187 -15 -270 -6 -82 -12 -202 -15 -265
-3 -63 -7 -132 -9 -152 -1 -21 -4 -54 -4 -73 -1 -24 -7 -35 -17 -35 -8 0 -15
-5 -15 -11 0 -5 -6 -7 -12 -3 -9 5 -9 2 1 -9 9 -11 10 -17 2 -17 -6 0 -11 -8
-12 -17 -1 -26 -18 20 -23 63 -3 19 -9 49 -15 67 -18 59 -119 741 -137 927
-15 165 -47 404 -66 495 -11 55 -22 112 -24 126 -7 51 -36 184 -41 189 -7 6 3
-84 13 -117 3 -13 2 -23 -4 -23 -9 0 -34 132 -53 285 -5 44 -20 125 -33 180
-32 133 -79 496 -91 695 -3 58 -8 126 -11 153 -4 31 -2 47 5 47 6 0 11 -3 11
-7z m1226 -495 c-3 -68 -8 -251 -12 -408 -4 -199 -10 -293 -19 -312 -11 -22
-10 -28 1 -32 10 -4 12 -17 9 -47 -3 -23 -8 -46 -11 -50 -3 -5 1 -9 8 -9 8 -1
5 -7 -7 -16 -12 -10 -16 -18 -9 -21 7 -2 10 -13 7 -24 -3 -10 0 -26 7 -34 8
-10 9 -15 2 -15 -16 0 -33 36 -26 54 4 10 1 16 -7 16 -10 0 -10 3 -1 12 8 8 9
15 1 25 -14 16 -29 17 -29 2 0 -5 6 -7 13 -3 8 5 7 2 -2 -10 -21 -26 -30 -4
-29 78 0 39 -3 73 -8 76 -9 5 -9 -208 -1 -217 3 -2 8 5 12 17 5 17 10 19 21 9
8 -6 14 -22 14 -34 0 -12 10 -30 23 -38 12 -9 18 -16 12 -16 -19 -1 -43 25
-47 48 l-3 22 -22 -21 c-27 -24 -29 -40 -7 -40 8 0 13 4 9 9 -3 5 -1 12 5 16
6 4 10 -5 10 -20 0 -17 -5 -25 -12 -23 -24 8 -36 -18 -34 -75 1 -31 -3 -58 -8
-60 -5 -2 -6 -9 -1 -17 5 -7 9 -68 10 -134 1 -83 5 -121 13 -124 7 -2 12 -13
11 -25 0 -21 -1 -21 -9 -2 -9 22 -13 11 -11 -35 0 -21 -1 -19 -10 8 -5 18 -13
31 -17 28 -4 -2 -8 14 -9 37 -1 27 2 36 8 26 5 -9 9 -10 9 -2 0 6 -7 19 -16
27 -8 9 -12 16 -7 16 8 0 8 101 0 238 -2 40 1 56 13 62 10 7 11 9 2 10 -7 0
-10 5 -7 11 4 6 -1 16 -10 23 -13 10 -15 17 -8 30 6 12 7 36 1 68 -7 36 -6 54
4 66 7 9 8 14 4 10 -15 -13 -38 13 -25 28 7 9 7 19 -1 35 -11 19 -10 21 4 16
10 -4 15 -3 11 2 -3 5 -2 11 2 14 5 2 3 3 -3 1 -7 -1 -9 8 -6 23 4 21 6 23 14
10 5 -9 15 -14 23 -11 20 8 19 22 -2 20 -12 -1 -17 7 -17 24 0 14 -6 29 -13
33 -18 11 -16 30 2 23 9 -3 15 0 15 10 0 8 -4 12 -10 9 -5 -3 -10 1 -10 10 0
9 -4 13 -10 10 -5 -3 -10 -16 -10 -28 0 -18 -2 -19 -10 -7 -5 8 -10 10 -10 4
0 -6 3 -14 6 -17 4 -4 8 -25 9 -47 2 -32 -1 -40 -11 -36 -9 3 -14 -2 -14 -14
0 -18 -11 -25 -33 -21 -5 1 -6 -3 -2 -8 3 -6 12 -8 20 -4 9 3 15 -1 16 -8 1
-8 5 -3 9 11 6 20 8 14 9 -26 1 -56 -9 -67 -50 -57 -14 4 -20 2 -16 -4 9 -15
56 -22 60 -10 2 6 6 3 10 -6 3 -9 2 -17 -4 -17 -6 0 -7 -4 -4 -10 3 -5 1 -10
-6 -10 -10 0 -10 -3 -1 -12 17 -17 15 -24 -10 -49 -13 -12 -17 -19 -10 -14 10
5 13 0 10 -21 -2 -17 -8 -28 -16 -26 -10 2 -10 -2 -2 -18 9 -17 8 -20 -10 -20
-12 0 -24 9 -30 23 l-9 22 0 -22 c-1 -13 -7 -23 -13 -24 -10 0 -10 -2 0 -6 6
-2 12 -13 12 -24 0 -11 -5 -16 -12 -14 -16 6 -23 85 -8 85 6 0 8 5 5 10 -11
18 -35 11 -35 -10 0 -11 -4 -20 -9 -20 -5 0 -8 15 -7 33 1 17 -1 43 -5 57 -7
24 -7 24 -8 3 -1 -13 -1 -26 -2 -30 -1 -9 -29 -26 -34 -21 -2 2 -6 36 -8 76
-3 40 -7 76 -10 79 -3 3 -4 10 -1 17 3 7 0 23 -5 37 -8 21 -10 18 -10 -23 -1
-27 -5 -48 -9 -48 -5 0 -8 47 -8 105 1 78 -2 106 -12 110 -10 4 -13 -4 -12
-28 4 -75 -1 -158 -9 -153 -5 3 -7 16 -3 28 4 17 2 20 -12 15 -12 -5 -16 -3
-13 5 2 7 10 12 16 11 13 -3 15 13 2 21 -5 3 -7 16 -3 28 4 16 2 19 -8 13 -10
-6 -11 -4 -5 11 14 33 18 74 7 74 -13 0 -13 210 1 228 5 6 20 12 34 12 13 0
25 6 27 13 13 41 17 48 27 41 8 -4 7 -9 -2 -15 -11 -7 -11 -9 2 -9 9 0 22 6
29 14 23 28 40 7 42 -53 1 -52 2 -53 5 -11 5 62 12 90 23 90 5 0 35 12 67 28
l59 27 1 53 c1 52 8 79 12 45 2 -23 3 -230 1 -313 -2 -81 -1 -95 5 -89 2 3 7
75 11 160 4 85 7 155 8 155 0 1 12 5 25 9 23 7 23 6 17 -39 -5 -30 -4 -46 3
-46 7 0 11 29 11 75 0 67 -11 96 -23 63 -3 -10 -8 -10 -16 -2 -9 8 -9 17 0 37
13 28 32 28 22 -1 -4 -12 -3 -14 5 -7 6 6 12 21 14 35 2 14 11 26 21 28 16 3
18 0 11 -20 -11 -37 -10 -51 6 -55 12 -4 12 -3 1 5 -9 7 -10 12 -2 16 6 4 11
23 11 42 0 19 9 53 20 74 11 22 16 40 10 40 -6 0 -3 11 6 24 8 14 17 33 19 43
5 24 4 23 11 23 3 0 3 -55 0 -122z m-498 -75 c-21 -5 -23 -19 -5 -26 6 -3 2
-6 -10 -6 -13 -1 -23 5 -23 12 0 19 10 27 34 26 17 -1 18 -2 4 -6z m-133 -27
c18 7 30 -15 16 -29 -8 -8 -11 -8 -11 0 0 7 -9 15 -20 18 -11 3 -20 11 -20 18
0 8 3 8 11 0 6 -6 17 -9 24 -7z m175 -45 c13 -13 13 -14 -5 -7 -11 5 -30 11
-42 13 -13 3 -23 9 -23 14 0 13 52 -2 70 -20z m235 -43 c-8 -46 -15 -48 -15
-5 0 21 5 37 10 37 6 0 8 -13 5 -32z m-49 -10 c-18 -26 -22 -17 -5 14 6 11 13
17 16 15 3 -3 -2 -16 -11 -29z m-111 2 c3 -5 -3 -10 -14 -10 -12 0 -21 5 -21
10 0 6 6 10 14 10 8 0 18 -4 21 -10z m235 6 c0 -3 -4 -8 -10 -11 -5 -3 -10 -1
-10 4 0 6 5 11 10 11 6 0 10 -2 10 -4z m-413 -73 c-3 -10 -5 -4 -5 12 0 17 2
24 5 18 2 -7 2 -21 0 -30z m70 1 c-32 -29 -32 -29 -33 0 -1 19 3 23 29 24 l30
1 -26 -25z m158 16 c3 -5 -1 -10 -10 -10 -9 0 -13 5 -10 10 3 6 8 10 10 10 2
0 7 -4 10 -10z m-108 -32 c-3 -7 -5 -2 -5 12 0 14 2 19 5 13 2 -7 2 -19 0 -25z
m-27 -2 c0 -17 -14 -29 -23 -20 -8 8 3 34 14 34 5 0 9 -6 9 -14z m-662 -261
c0 -29 0 -29 -8 -5 -4 14 -8 39 -8 55 0 29 0 29 8 5 4 -14 8 -38 8 -55z m11
-110 c4 -36 3 -65 -1 -65 -4 0 -8 15 -8 33 0 17 -3 50 -7 72 -3 22 -2 37 2 33
4 -4 11 -37 14 -73z m-865 -18 c7 -6 6 -7 -4 -4 -8 2 -16 14 -17 28 -1 19 -1
20 4 4 3 -11 10 -24 17 -28z m1806 11 c0 -5 -4 -8 -10 -8 -5 0 -10 10 -10 23
0 18 2 19 10 7 5 -8 10 -18 10 -22z m-933 -155 c-2 -16 -4 -5 -4 22 0 28 2 40
4 28 2 -13 2 -35 0 -50z m583 22 c0 -8 -4 -15 -10 -15 -5 0 -7 7 -4 15 4 8 8
15 10 15 2 0 4 -7 4 -15z m24 -50 c-4 -8 -8 -15 -10 -15 -2 0 -4 7 -4 15 0 8
4 15 10 15 5 0 7 -7 4 -15z m-1417 -27 c-3 -7 -5 -2 -5 12 0 14 2 19 5 13 2
-7 2 -19 0 -25z m1403 -12 c0 -2 -7 -9 -15 -16 -13 -11 -14 -10 -9 4 5 14 24
23 24 12z m-74 -51 c-15 -15 -16 -14 -16 16 0 31 1 32 16 17 16 -15 16 -18 0
-33z m94 -12 c0 -7 -4 -13 -9 -13 -5 0 -8 12 -8 26 0 18 2 22 8 13 5 -8 9 -20
9 -26z m-27 -45 c-9 -15 -23 -8 -23 12 0 17 2 19 14 8 8 -7 12 -16 9 -20z
m-1406 -10 c-3 -8 -6 -5 -6 6 -1 11 2 17 5 13 3 -3 4 -12 1 -19z m1333 18 c0
-3 -4 -8 -10 -11 -5 -3 -10 -1 -10 4 0 6 5 11 10 11 6 0 10 -2 10 -4z m205
-31 c0 -30 0 -30 -24 -8 -22 18 -19 33 7 33 11 0 17 -8 17 -25z m340 -4 c-6
-5 -25 10 -25 20 0 5 6 4 14 -3 8 -7 12 -15 11 -17z m-1938 -3 c-3 -8 -6 -5
-6 6 -1 11 2 17 5 13 3 -3 4 -12 1 -19z m1463 2 c0 -5 -4 -10 -10 -10 -5 0
-10 5 -10 10 0 6 5 10 10 10 6 0 10 -4 10 -10z m-1403 -22 c-3 -8 -6 -5 -6 6
-1 11 2 17 5 13 3 -3 4 -12 1 -19z m-48 -42 c-4 -5 -4 -17 1 -27 6 -10 8 -59
4 -111 -3 -51 -5 -108 -4 -125 0 -18 -3 -33 -8 -33 -9 0 -14 319 -4 334 3 5 9
1 13 -10 4 -10 3 -23 -2 -28z m1578 12 c-3 -8 -6 -5 -6 6 -1 11 2 17 5 13 3
-3 4 -12 1 -19z m133 -3 c0 -8 -4 -15 -10 -15 -5 0 -10 7 -10 15 0 8 5 15 10
15 6 0 10 -7 10 -15z m222 -15 c3 -17 1 -33 -4 -36 -4 -3 -8 4 -8 15 0 10 -3
26 -6 35 -3 9 -2 16 4 16 5 0 12 -14 14 -30z m-1695 -17 c-3 -10 -5 -4 -5 12
0 17 2 24 5 18 2 -7 2 -21 0 -30z m1663 10 c0 -26 -1 -26 -14 -7 -11 14 -11
21 -3 26 17 11 17 11 17 -19z m-1480 5 c0 -7 -5 -20 -10 -28 -8 -12 -10 -9
-10 13 0 15 5 27 10 27 6 0 10 -6 10 -12z m1254 -16 c2 -4 1 -14 -3 -21 -6 -9
-10 -7 -14 8 -5 20 7 29 17 13z m41 -2 c-3 -5 -11 -10 -16 -10 -6 0 -7 5 -4
10 3 6 11 10 16 10 6 0 7 -4 4 -10z m-125 -190 c0 -5 -2 -10 -4 -10 -3 0 -8 5
-11 10 -3 6 -1 10 4 10 6 0 11 -4 11 -10z m-1403 -47 c-3 -10 -5 -4 -5 12 0
17 2 24 5 18 2 -7 2 -21 0 -30z m1407 12 c3 -8 1 -15 -4 -15 -6 0 -10 7 -10
15 0 8 2 15 4 15 2 0 6 -7 10 -15z m53 -17 c-3 -8 -6 -5 -6 6 -1 11 2 17 5 13
3 -3 4 -12 1 -19z m43 2 c0 -5 -5 -10 -11 -10 -5 0 -7 5 -4 10 3 6 8 10 11 10
2 0 4 -4 4 -10z m207 -14 c-6 -8 -19 -11 -27 -8 -12 5 -12 7 3 10 9 2 17 8 17
13 0 6 4 7 10 4 6 -4 5 -11 -3 -19z m-460 -58 c-3 -8 -6 -5 -6 6 -1 11 2 17 5
13 3 -3 4 -12 1 -19z m-1110 -90 c-3 -7 -5 -2 -5 12 0 14 2 19 5 13 2 -7 2
-19 0 -25z m1490 0 c-3 -7 -5 -2 -5 12 0 14 2 19 5 13 2 -7 2 -19 0 -25z m0
-40 c-3 -8 -6 -5 -6 6 -1 11 2 17 5 13 3 -3 4 -12 1 -19z m-1653 -29 c-3 -5
-8 -22 -10 -36 -9 -46 -14 -39 -13 16 1 42 4 49 15 40 8 -6 11 -15 8 -20z
m173 -11 c-3 -7 -5 -2 -5 12 0 14 2 19 5 13 2 -7 2 -19 0 -25z m1520 10 c-3
-8 -6 -5 -6 6 -1 11 2 17 5 13 3 -3 4 -12 1 -19z m-40 -30 c-3 -8 -6 -5 -6 6
-1 11 2 17 5 13 3 -3 4 -12 1 -19z m31 -44 c-3 -14 -5 -12 -10 9 -3 19 -2 25
4 19 6 -6 8 -18 6 -28z m-1691 -49 c0 -25 -4 -48 -8 -51 -4 -2 -8 18 -7 46 0
27 3 50 8 50 4 0 7 -20 7 -45z m503 -173 c0 -15 -2 -15 -10 -2 -8 12 -10 12
-10 1 0 -8 -2 -12 -5 -9 -3 3 -3 13 1 22 7 19 24 11 24 -12z m-25 -72 c3 -5 1
-10 -4 -10 -6 0 -11 5 -11 10 0 6 2 10 4 10 3 0 8 -4 11 -10z m-735 -110 l-6
-95 -4 86 c-5 92 -2 127 9 113 4 -5 4 -52 1 -104z m735 60 c3 -5 1 -10 -4 -10
-6 0 -11 5 -11 10 0 6 2 10 4 10 3 0 8 -4 11 -10z m-8 -162 c-3 -8 -6 -5 -6 6
-1 11 2 17 5 13 3 -3 4 -12 1 -19z m627 -457 c3 -5 0 -14 -8 -20 -10 -9 -15
-8 -20 4 -3 9 -2 13 4 10 6 -3 10 -1 10 4 0 13 7 14 14 2z"/>
<path d="M681 3194 c0 -11 3 -14 6 -6 3 7 2 16 -1 19 -3 4 -6 -2 -5 -13z"/>
<path d="M832 2860 c0 -14 2 -19 5 -12 2 6 2 18 0 25 -3 6 -5 1 -5 -13z"/>
<path d="M825 2780 c-3 -5 -3 -14 0 -20 3 -5 1 -10 -5 -10 -6 0 -8 -5 -5 -10
11 -17 25 -1 23 25 -3 28 -4 29 -13 15z"/>
<path d="M820 2710 c0 -5 5 -10 10 -10 6 0 10 5 10 10 0 6 -4 10 -10 10 -5 0
-10 -4 -10 -10z"/>
<path d="M318 2200 c-3 -17 -1 -33 4 -36 4 -3 8 11 8 30 0 44 -6 47 -12 6z"/>
<path d="M452 2050 c0 -14 2 -19 5 -12 2 6 2 18 0 25 -3 6 -5 1 -5 -13z"/>
<path d="M450 1978 c0 -17 3 -28 8 -24 10 10 10 56 0 56 -4 0 -8 -14 -8 -32z"/>
<path d="M610 1886 c0 -9 5 -16 10 -16 6 0 10 4 10 9 0 6 -4 13 -10 16 -5 3
-10 -1 -10 -9z"/>
<path d="M463 1840 c0 -30 2 -43 4 -27 2 15 2 39 0 55 -2 15 -4 2 -4 -28z"/>
<path d="M608 1820 c-4 -14 -8 -38 -8 -55 1 -25 2 -27 11 -12 6 9 9 34 7 55
-3 33 -4 35 -10 12z"/>
<path d="M480 1756 c-6 -9 -10 -21 -7 -28 4 -9 6 -7 6 4 1 9 7 18 14 21 6 2 9
7 6 11 -3 4 -12 0 -19 -8z"/>
<path d="M166 1172 c-3 -5 1 -9 9 -9 8 0 12 4 9 9 -3 4 -7 8 -9 8 -2 0 -6 -4
-9 -8z"/>
<path d="M172 955 c0 -16 2 -22 5 -12 2 9 2 23 0 30 -3 6 -5 -1 -5 -18z"/>
<path d="M1260 2990 c0 -5 5 -10 11 -10 5 0 7 5 4 10 -3 6 -8 10 -11 10 -2 0
-4 -4 -4 -10z"/>
<path d="M1182 2050 c0 -14 2 -19 5 -12 2 6 2 18 0 25 -3 6 -5 1 -5 -13z"/>
<path d="M2208 2670 c-3 -16 -1 -30 4 -30 5 0 6 -4 3 -10 -3 -5 -2 -10 4 -10
10 0 10 64 -1 75 -3 3 -8 -8 -10 -25z"/>
<path d="M2208 2593 c7 -3 16 -2 19 1 4 3 -2 6 -13 5 -11 0 -14 -3 -6 -6z"/>
<path d="M2167 2573 c-10 -9 -9 -23 1 -23 5 0 9 7 9 15 0 17 -1 18 -10 8z"/>
<path d="M2200 2556 c7 -7 14 -6 21 1 9 9 7 12 -9 10 -14 -1 -18 -5 -12 -11z"/>
<path d="M2166 2495 c-3 -8 -1 -15 4 -15 6 0 10 7 10 15 0 8 -2 15 -4 15 -2 0
-6 -7 -10 -15z"/>
<path d="M2185 2470 c-17 -19 -11 -28 10 -12 10 7 19 32 12 32 -2 0 -12 -9
-22 -20z"/>
<path d="M2120 2420 c0 -5 5 -10 11 -10 5 0 7 5 4 10 -3 6 -8 10 -11 10 -2 0
-4 -4 -4 -10z"/>
<path d="M2160 2420 c0 -5 6 -10 14 -10 8 0 18 5 21 10 3 6 -3 10 -14 10 -12
0 -21 -4 -21 -10z"/>
<path d="M2119 2343 c0 -27 -2 -58 -5 -71 -2 -13 0 -31 6 -40 7 -12 9 3 10 55
0 39 3 78 6 87 3 9 1 16 -5 16 -6 0 -11 -20 -12 -47z"/>
<path d="M2174 2376 c-13 -14 -28 -56 -20 -56 10 0 46 59 39 63 -5 3 -13 -1
-19 -7z"/>
<path d="M1780 2329 c0 -5 5 -7 10 -4 6 3 10 8 10 11 0 2 -4 4 -10 4 -5 0 -10
-5 -10 -11z"/>
<path d="M2166 2305 c-10 -8 -15 -18 -11 -24 9 -16 25 -13 25 3 0 8 5 16 12
18 7 3 8 7 2 10 -5 4 -17 0 -28 -7z"/>
<path d="M1893 2270 c0 -25 2 -35 4 -22 2 12 2 32 0 45 -2 12 -4 2 -4 -23z"/>
<path d="M2150 2227 c0 -14 5 -29 10 -32 7 -4 8 3 4 22 -9 38 -14 42 -14 10z"/>
<path d="M2151 2154 c0 -11 3 -14 6 -6 3 7 2 16 -1 19 -3 4 -6 -2 -5 -13z"/>
<path d="M1985 2090 c3 -5 8 -10 11 -10 2 0 4 5 4 10 0 6 -5 10 -11 10 -5 0
-7 -4 -4 -10z"/>
<path d="M2147 2070 c-3 -13 -4 -26 -2 -29 3 -2 5 1 5 7 0 6 7 9 15 6 8 -4 12
-11 8 -17 -3 -6 -1 -7 5 -3 17 10 15 26 -2 26 -8 0 -16 8 -18 18 -3 13 -5 11
-11 -8z"/>
<path d="M1801 2034 c0 -11 3 -14 6 -6 3 7 2 16 -1 19 -3 4 -6 -2 -5 -13z"/>
<path d="M1996 2037 c3 -10 9 -15 12 -12 3 3 0 11 -7 18 -10 9 -11 8 -5 -6z"/>
<path d="M1980 1956 c0 -22 3 -27 11 -19 8 8 8 16 0 30 -9 16 -10 14 -11 -11z"/>
<path d="M2177 1909 c7 -7 15 -10 18 -7 3 3 -2 9 -12 12 -14 6 -15 5 -6 -5z"/>
<path d="M1949 1828 c0 -2 -2 -16 -4 -31 -3 -23 -1 -26 10 -17 7 6 11 20 8 30
-5 17 -11 26 -14 18z"/>
<path d="M2005 1820 c-3 -5 -1 -10 4 -10 6 0 11 5 11 10 0 6 -2 10 -4 10 -3 0
-8 -4 -11 -10z"/>
<path d="M1970 1771 c0 -5 5 -13 10 -16 6 -3 10 -2 10 4 0 5 -4 13 -10 16 -5
3 -10 2 -10 -4z"/>
</g>
</svg>
