<?xml version="1.0" standalone="no"?>
<!DOCTYPE svg PUBLIC "-//W3C//DTD SVG 20010904//EN"
 "http://www.w3.org/TR/2001/REC-SVG-20010904/DTD/svg10.dtd">
<svg version="1.0" xmlns="http://www.w3.org/2000/svg"
 width="3431.000000pt" height="761.000000pt" viewBox="0 0 3431.000000 761.000000"
 preserveAspectRatio="xMidYMid meet">
<metadata>
Created by potrace 1.16, written by Peter Selinger 2001-2019
</metadata>
<g transform="translate(0.000000,761.000000) scale(0.100000,-0.100000)"
fill="#fff" stroke="none">
<path d="M1931 5833 c-324 -978 -669 -2019 -767 -2313 -97 -294 -179 -541
-181 -547 -4 -10 115 -13 573 -13 l579 0 540 1654 c297 910 542 1653 546 1651
3 -2 248 -747 544 -1654 l540 -1651 737 0 c406 0 738 3 738 7 0 4 -350 1050
-777 2325 l-778 2318 -852 0 -852 0 -590 -1777z"/>
<path d="M19180 5285 l0 -2325 645 0 645 0 0 93 c0 188 33 465 76 647 72 305
172 504 344 684 239 250 514 370 845 369 154 -1 247 -22 370 -83 171 -84 283
-195 360 -353 98 -204 115 -340 115 -918 l0 -439 645 0 645 0 0 423 c0 705
-20 978 -89 1262 -54 222 -136 414 -249 585 -71 107 -251 288 -357 358 -271
179 -626 272 -1042 272 -768 0 -1310 -370 -1636 -1115 l-26 -60 0 1463 -1
1462 -645 0 -645 0 0 -2325z"/>
<path d="M33958 5784 c-211 -32 -451 -146 -664 -315 -115 -91 -258 -251 -354
-395 -126 -191 -223 -391 -316 -654 l-34 -95 0 653 0 652 -580 0 -580 0 0
-1335 0 -1335 655 0 655 0 5 23 c71 326 146 543 272 788 154 302 367 472 713
572 138 40 380 73 563 77 16 0 17 39 17 684 0 614 -2 684 -16 690 -28 11 -246
5 -336 -10z"/>
<path d="M10301 5738 c-118 -13 -290 -59 -398 -106 -425 -183 -754 -540 -1039
-1125 l-74 -152 0 638 0 637 -585 0 -585 0 0 -1335 0 -1335 640 0 c352 0 640
3 640 8 0 4 5 72 10 152 37 522 172 877 433 1143 211 215 428 328 689 358 425
49 797 -210 921 -642 46 -160 50 -210 55 -621 l4 -398 644 0 644 0 0 318 c0
379 -14 713 -35 877 -58 444 -190 787 -394 1020 -170 195 -472 387 -752 479
-248 81 -558 113 -818 84z"/>
<path d="M15775 5743 c-354 -29 -628 -99 -889 -227 -330 -161 -588 -379 -835
-706 -355 -470 -553 -1047 -597 -1742 l-7 -108 680 0 681 0 6 31 c3 17 6 51 6
74 0 65 29 275 56 410 60 297 172 587 302 783 50 77 174 205 247 257 169 120
365 177 610 177 519 0 842 -266 980 -807 18 -71 36 -154 40 -182 6 -49 9 -53
33 -53 40 1 1070 145 1076 151 7 7 -38 213 -79 359 -127 459 -357 854 -642
1103 -319 279 -724 436 -1227 477 -119 9 -347 11 -441 3z"/>
<path d="M27475 5744 c-22 -2 -89 -9 -150 -15 -564 -55 -1066 -292 -1465 -690
-502 -503 -789 -1177 -836 -1966 l-7 -113 680 0 681 0 6 98 c40 582 204 1047
465 1316 96 98 173 154 295 212 179 85 406 122 634 103 132 -10 205 -26 323
-69 470 -170 755 -717 805 -1547 l7 -113 678 0 678 0 -4 33 c-2 17 -7 79 -9
137 -11 224 -66 540 -131 755 -138 456 -367 841 -694 1165 -376 374 -812 590
-1346 670 -134 20 -505 35 -610 24z"/>
<path d="M290 890 c-157 -473 -286 -867 -288 -875 -3 -13 67 -15 589 -13 l593
3 52 160 c28 88 157 481 286 873 l236 712 -592 0 -591 -1 -285 -859z"/>
<path d="M4711 1748 c0 -2 131 -394 292 -873 l292 -870 742 -3 741 -2 -293
872 -293 873 -741 3 c-408 1 -741 1 -740 0z"/>
<path d="M7620 875 l0 -875 640 0 640 0 0 875 0 875 -640 0 -640 0 0 -875z"/>
<path d="M11010 875 l0 -875 645 0 645 0 0 875 0 875 -645 0 -645 0 0 -875z"/>
<path d="M13580 1744 c0 -21 116 -348 154 -434 284 -640 695 -1071 1221 -1280
l76 -30 830 0 830 0 78 30 c44 17 123 53 177 81 571 293 940 784 1149 1529 14
49 25 94 25 99 0 8 -180 11 -578 11 l-578 0 -44 -96 c-121 -268 -308 -469
-533 -574 -140 -66 -234 -84 -427 -85 -178 0 -255 13 -380 62 -249 98 -459
318 -583 609 l-34 79 -691 3 c-381 1 -692 -1 -692 -4z"/>
<path d="M19180 875 l0 -875 645 0 645 0 0 875 0 875 -645 0 -645 0 0 -875z"/>
<path d="M22580 875 l0 -875 645 0 645 0 0 875 0 875 -645 0 -645 0 0 -875z"/>
<path d="M25185 1723 c21 -85 111 -302 191 -463 237 -472 525 -814 879 -1043
89 -57 255 -140 367 -183 l87 -34 880 0 879 0 88 32 c122 44 369 170 484 247
209 140 442 352 594 541 198 248 389 608 481 908 l6 22 -681 -2 -682 -3 -23
-60 c-114 -304 -338 -552 -598 -662 -168 -71 -334 -98 -551 -90 -165 6 -250
23 -389 78 -253 102 -476 333 -613 636 l-44 98 -681 3 -681 2 7 -27z"/>
<path d="M31430 875 l0 -875 640 0 640 0 0 875 0 875 -640 0 -640 0 0 -875z"/>
</g>
</svg>
