<svg id="svg" xmlns="http://www.w3.org/2000/svg" xmlns:xlink="http://www.w3.org/1999/xlink" width="400" height="126.38493540617472" viewBox="0, 0, 400,126.38493540617472"><g id="svgg"><path id="path0" d="M98.606 0.879 C 98.093 0.917,97.442 0.994,97.161 1.050 C 95.989 1.284,94.875 1.580,94.530 1.748 C 94.328 1.846,94.127 1.927,94.084 1.927 C 94.041 1.927,93.683 2.085,93.289 2.277 C 92.894 2.470,92.532 2.628,92.482 2.628 C 92.323 2.628,91.843 2.908,91.336 3.297 C 91.062 3.507,90.814 3.679,90.784 3.679 C 90.648 3.679,89.640 4.431,89.267 4.810 C 87.834 6.268,87.264 6.935,86.561 7.978 C 85.466 9.605,85.369 9.797,84.667 11.752 C 83.679 14.501,83.557 18.657,84.388 21.283 C 84.683 22.217,85.448 24.068,85.689 24.433 C 86.103 25.060,86.196 25.898,85.886 26.212 C 85.717 26.382,83.006 29.697,82.720 30.084 C 82.418 30.490,82.280 30.663,81.979 31.006 C 81.859 31.143,81.693 31.347,81.610 31.459 C 81.344 31.819,80.190 33.235,80.009 33.424 C 79.810 33.632,79.478 34.034,79.220 34.381 C 78.184 35.776,77.776 35.831,76.418 34.761 C 75.637 34.147,72.877 32.030,71.863 31.268 C 71.574 31.051,71.279 30.825,71.206 30.766 C 71.053 30.639,69.164 29.187,68.257 28.499 C 67.507 27.929,67.111 27.497,67.041 27.172 C 66.456 24.461,64.626 22.846,62.160 22.863 C 59.423 22.881,57.119 25.635,57.618 28.290 C 57.904 29.807,58.018 30.057,58.741 30.749 C 60.083 32.035,60.588 32.259,62.229 32.297 C 63.699 32.331,63.746 32.340,64.074 32.627 C 64.215 32.751,65.297 33.587,66.477 34.485 C 67.657 35.382,68.824 36.277,69.070 36.473 C 69.317 36.669,69.962 37.164,70.505 37.574 C 71.047 37.983,71.536 38.358,71.590 38.406 C 71.644 38.454,71.905 38.654,72.170 38.850 C 72.435 39.045,72.861 39.361,73.117 39.550 C 74.052 40.241,74.116 40.737,73.373 41.523 C 73.164 41.744,72.668 42.335,72.271 42.837 C 71.873 43.338,71.462 43.847,71.357 43.968 C 71.088 44.276,70.415 45.111,70.155 45.458 C 69.871 45.838,69.543 46.234,69.323 46.461 C 69.227 46.561,69.061 46.760,68.954 46.904 C 68.690 47.258,66.396 50.135,65.883 50.755 C 64.413 52.531,63.324 53.884,63.323 53.933 C 63.323 53.968,63.194 54.134,63.036 54.303 C 62.729 54.632,61.982 55.518,61.485 56.143 C 61.316 56.355,60.940 56.806,60.650 57.145 C 60.359 57.484,59.674 58.314,59.127 58.988 C 58.580 59.663,58.058 60.293,57.966 60.390 C 57.875 60.486,57.072 61.471,56.181 62.579 C 55.291 63.687,54.435 64.746,54.279 64.932 C 54.123 65.119,53.971 65.311,53.940 65.360 C 53.909 65.408,53.840 65.421,53.787 65.388 C 53.731 65.354,53.690 65.387,53.690 65.465 C 53.690 65.540,53.729 65.601,53.777 65.601 C 53.825 65.601,53.865 65.781,53.865 66.000 C 53.865 66.244,53.899 66.379,53.952 66.346 C 54.006 66.312,54.040 66.445,54.040 66.686 C 54.040 66.902,54.079 67.104,54.127 67.134 C 54.176 67.164,54.215 67.343,54.215 67.533 C 54.215 67.723,54.254 67.878,54.303 67.878 C 54.351 67.878,54.390 68.058,54.390 68.278 C 54.390 68.521,54.424 68.656,54.478 68.623 C 54.531 68.590,54.565 68.726,54.565 68.973 C 54.565 69.220,54.599 69.357,54.653 69.323 C 54.707 69.290,54.741 69.439,54.741 69.712 C 54.741 69.956,54.780 70.155,54.828 70.155 C 54.876 70.155,54.916 70.313,54.916 70.506 C 54.916 70.698,54.955 70.856,55.003 70.856 C 55.051 70.856,55.091 71.034,55.091 71.250 C 55.091 71.467,55.130 71.644,55.178 71.644 C 55.227 71.644,55.266 71.824,55.266 72.044 C 55.266 72.288,55.300 72.422,55.354 72.389 C 55.407 72.356,55.441 72.492,55.441 72.739 C 55.441 72.987,55.475 73.123,55.529 73.090 C 55.623 73.031,55.644 73.128,55.619 73.510 C 55.610 73.645,55.650 73.813,55.709 73.884 C 55.768 73.955,55.852 74.179,55.896 74.383 C 56.055 75.119,56.134 75.461,56.233 75.848 C 56.288 76.065,56.353 76.410,56.377 76.615 C 56.402 76.820,56.454 76.987,56.492 76.987 C 56.531 76.987,56.582 77.155,56.607 77.359 C 56.632 77.564,56.695 77.899,56.747 78.104 C 56.961 78.937,57.031 79.233,57.073 79.483 C 57.097 79.628,57.152 79.825,57.193 79.921 C 57.235 80.018,57.292 80.244,57.319 80.425 C 57.429 81.160,57.479 81.370,57.553 81.416 C 57.596 81.443,57.631 81.637,57.631 81.848 C 57.631 82.059,57.666 82.254,57.709 82.280 C 57.783 82.326,57.837 82.560,57.952 83.332 C 57.997 83.635,58.244 84.059,58.244 83.833 C 58.244 83.786,58.421 83.529,58.638 83.263 C 58.855 82.997,59.032 82.744,59.032 82.700 C 59.032 82.656,59.111 82.548,59.207 82.461 C 59.304 82.374,59.383 82.268,59.383 82.227 C 59.383 82.185,59.579 81.900,59.820 81.594 C 60.061 81.288,60.308 80.944,60.369 80.829 C 60.548 80.495,60.798 80.128,61.175 79.642 C 61.369 79.393,61.686 78.967,61.879 78.698 C 62.071 78.428,62.387 78.001,62.579 77.750 C 62.772 77.499,63.066 77.097,63.232 76.856 C 63.398 76.615,63.556 76.398,63.583 76.374 C 63.669 76.296,64.408 75.293,64.743 74.797 C 64.923 74.533,65.228 74.099,65.423 73.834 C 65.617 73.569,65.916 73.155,66.087 72.914 C 66.258 72.674,66.532 72.299,66.696 72.082 C 66.860 71.866,67.135 71.491,67.306 71.250 C 67.478 71.009,67.776 70.596,67.968 70.331 C 68.161 70.066,68.481 69.612,68.681 69.323 C 68.881 69.034,69.068 68.778,69.098 68.754 C 69.128 68.730,69.218 68.612,69.299 68.491 C 69.491 68.204,69.862 67.686,70.769 66.437 C 71.710 65.141,72.807 63.583,73.456 62.623 C 73.732 62.214,73.993 61.855,74.035 61.826 C 74.076 61.796,74.176 61.672,74.257 61.550 C 74.667 60.926,75.112 60.290,75.206 60.192 C 75.264 60.132,75.336 60.004,75.367 59.908 C 75.397 59.811,75.455 59.733,75.495 59.733 C 75.559 59.733,75.695 59.545,76.067 58.946 C 76.116 58.868,76.293 58.631,76.462 58.419 C 76.630 58.207,76.808 57.968,76.856 57.888 C 77.029 57.601,77.409 57.055,77.655 56.739 C 78.038 56.248,79.151 54.723,81.416 51.587 C 84.248 47.666,83.949 47.840,85.631 49.149 C 86.209 49.599,86.812 50.066,86.970 50.186 C 87.129 50.307,88.209 51.135,89.371 52.027 C 90.532 52.919,92.118 54.131,92.894 54.721 C 94.521 55.955,94.673 56.145,94.982 57.334 C 95.772 60.375,98.950 61.800,101.727 60.358 C 106.165 58.055,104.388 51.334,99.365 51.422 C 98.172 51.443,98.208 51.460,96.562 50.188 C 96.273 49.964,95.692 49.518,95.270 49.196 C 93.838 48.100,93.061 47.504,91.482 46.287 C 90.615 45.619,89.571 44.823,89.161 44.518 C 87.543 43.314,87.465 42.885,88.613 41.512 C 88.932 41.131,89.161 40.828,89.161 40.787 C 89.161 40.722,89.879 39.660,90.191 39.263 C 90.334 39.081,90.707 38.556,91.019 38.098 C 91.331 37.640,91.821 36.950,92.107 36.565 C 92.668 35.813,93.018 35.332,94.110 33.822 C 94.996 32.597,95.548 32.377,96.694 32.792 C 97.801 33.194,100.909 33.239,103.087 32.884 C 103.830 32.763,105.741 32.139,106.547 31.753 C 106.884 31.592,107.337 31.387,107.553 31.298 C 107.770 31.209,108.106 31.015,108.301 30.867 C 108.496 30.718,108.888 30.469,109.172 30.313 C 110.531 29.568,112.811 27.128,113.846 25.312 C 114.052 24.951,114.280 24.557,114.353 24.436 C 114.642 23.956,115.262 22.611,115.262 22.462 C 115.262 22.301,115.310 22.127,115.576 21.327 C 115.657 21.086,115.752 20.692,115.787 20.451 C 115.823 20.210,115.921 19.678,116.005 19.269 C 116.551 16.601,115.690 11.680,114.279 9.405 C 114.163 9.218,114.014 8.930,113.947 8.764 C 113.880 8.599,113.606 8.185,113.338 7.845 C 113.069 7.504,112.706 7.029,112.530 6.788 C 112.169 6.293,110.668 4.806,110.138 4.418 C 109.945 4.277,109.768 4.139,109.744 4.113 C 109.720 4.086,109.562 3.970,109.393 3.854 C 109.225 3.738,109.067 3.621,109.043 3.595 C 108.967 3.511,108.318 3.097,107.773 2.786 C 107.172 2.442,104.892 1.510,104.467 1.434 C 104.310 1.406,103.926 1.310,103.613 1.221 C 102.402 0.877,100.455 0.744,98.606 0.879 M101.336 6.746 C 104.322 7.212,106.591 8.590,108.477 11.083 C 108.932 11.683,109.656 13.069,109.656 13.337 C 109.656 13.437,109.752 13.798,109.870 14.138 C 110.354 15.541,110.437 18.135,110.040 19.444 C 109.916 19.853,109.785 20.326,109.749 20.495 C 109.683 20.808,109.318 21.579,109.046 21.980 C 108.962 22.102,108.701 22.498,108.465 22.860 C 108.029 23.528,106.263 25.400,106.070 25.400 C 106.011 25.400,105.760 25.535,105.511 25.699 C 104.998 26.039,104.204 26.451,104.062 26.451 C 104.010 26.451,103.709 26.569,103.394 26.713 C 103.078 26.858,102.733 26.977,102.625 26.977 C 102.518 26.978,102.221 27.034,101.966 27.102 C 101.081 27.338,99.836 27.373,99.585 27.170 C 99.350 26.979,99.421 26.339,99.714 26.014 C 100.102 25.582,100.357 24.287,100.190 23.596 C 99.964 22.659,99.521 22.107,98.183 21.093 C 97.773 20.782,97.024 20.212,96.519 19.825 C 95.181 18.802,94.945 18.671,94.252 18.564 C 93.155 18.393,92.175 18.740,91.258 19.624 C 90.133 20.708,89.720 19.909,89.741 16.685 L 89.750 15.108 90.160 13.882 C 90.967 11.464,92.237 9.673,93.788 8.767 C 94.110 8.579,94.452 8.339,94.548 8.233 C 94.753 8.006,95.098 7.809,95.643 7.607 C 95.859 7.527,96.214 7.395,96.431 7.313 C 97.114 7.055,98.149 6.830,99.190 6.712 C 99.705 6.654,100.862 6.672,101.336 6.746 M19.312 41.663 C 19.168 41.740,19.030 41.828,19.006 41.859 C 18.889 42.007,18.209 42.468,17.780 42.692 C 17.515 42.830,17.125 43.085,16.913 43.258 C 16.159 43.877,15.542 44.328,15.273 44.458 C 15.123 44.530,14.926 44.656,14.835 44.738 C 14.331 45.190,13.363 46.008,12.790 46.466 C 11.716 47.324,7.847 51.215,7.182 52.106 C 7.062 52.267,6.891 52.483,6.802 52.584 C 6.221 53.254,5.900 53.642,5.824 53.768 C 5.776 53.847,5.442 54.306,5.082 54.786 C 4.470 55.603,3.328 57.258,3.328 57.328 C 3.328 57.345,3.215 57.529,3.078 57.736 C 2.940 57.943,2.639 58.467,2.408 58.901 C 2.177 59.334,1.900 59.829,1.792 60.001 C 1.394 60.631,0.526 62.422,0.526 62.611 C 0.526 63.189,1.023 63.332,1.671 62.941 C 1.939 62.779,2.314 62.597,2.503 62.536 C 2.692 62.475,3.063 62.312,3.328 62.174 C 3.593 62.036,3.869 61.923,3.941 61.923 C 4.014 61.923,4.401 61.759,4.801 61.558 C 6.026 60.946,6.464 61.222,6.040 62.340 C 3.654 68.635,3.133 78.074,4.777 85.220 C 4.849 85.533,4.990 86.183,5.091 86.665 C 5.192 87.147,5.304 87.679,5.341 87.848 C 5.469 88.446,5.952 90.181,6.217 91.001 C 6.365 91.458,6.543 92.030,6.612 92.271 C 7.001 93.626,7.847 95.993,8.106 96.451 C 8.180 96.583,8.313 96.898,8.402 97.152 C 9.030 98.945,11.206 103.533,12.528 105.846 C 12.803 106.328,13.150 106.959,13.299 107.248 C 13.449 107.537,13.628 107.872,13.698 107.992 C 13.986 108.485,14.791 110.302,15.310 111.627 C 15.973 113.319,16.437 114.932,16.960 117.364 C 17.339 119.127,17.519 122.008,17.330 123.279 C 17.128 124.636,17.514 125.038,18.556 124.557 C 18.883 124.406,19.207 124.282,19.276 124.282 C 19.344 124.281,19.566 124.222,19.770 124.152 C 20.106 124.034,21.363 123.747,22.597 123.505 C 23.900 123.250,27.666 123.128,29.604 123.279 C 30.874 123.377,31.947 123.507,32.757 123.659 C 33.263 123.755,34.029 123.897,34.461 123.976 C 34.893 124.055,35.270 124.135,35.301 124.154 C 35.331 124.173,35.667 124.250,36.049 124.327 C 36.430 124.403,36.927 124.543,37.152 124.637 C 37.378 124.731,37.677 124.808,37.817 124.808 C 37.958 124.808,38.305 124.886,38.589 124.981 C 38.874 125.077,39.245 125.157,39.413 125.160 C 39.582 125.163,39.976 125.225,40.289 125.299 C 40.602 125.373,41.134 125.472,41.471 125.518 C 41.809 125.565,42.222 125.644,42.391 125.695 C 42.560 125.746,42.974 125.819,43.311 125.857 C 43.648 125.896,44.416 126.016,45.019 126.123 C 45.968 126.293,46.513 126.324,49.113 126.360 L 52.113 126.401 52.113 126.130 C 52.113 125.981,52.074 125.859,52.025 125.859 C 51.977 125.859,51.938 125.702,51.938 125.509 C 51.938 125.316,51.898 125.159,51.850 125.159 C 51.802 125.159,51.763 125.001,51.763 124.808 C 51.763 124.616,51.723 124.458,51.675 124.458 C 51.627 124.458,51.587 124.300,51.587 124.108 C 51.587 123.915,51.548 123.757,51.500 123.757 C 51.452 123.757,51.412 123.600,51.412 123.407 C 51.412 123.214,51.373 123.057,51.325 123.057 C 51.277 123.057,51.237 122.899,51.237 122.706 C 51.237 122.514,51.198 122.356,51.150 122.356 C 51.101 122.356,51.062 122.198,51.062 122.006 C 51.062 121.813,51.023 121.655,50.974 121.655 C 50.926 121.655,50.887 121.500,50.887 121.310 C 50.887 121.120,50.847 120.941,50.799 120.911 C 50.751 120.881,50.712 120.741,50.712 120.599 C 50.712 120.457,50.672 120.342,50.624 120.342 C 50.576 120.342,50.536 120.186,50.536 119.996 C 50.536 119.807,50.497 119.627,50.449 119.597 C 50.401 119.567,50.361 119.385,50.361 119.193 C 50.361 118.981,50.327 118.864,50.274 118.896 C 50.226 118.926,50.182 118.860,50.176 118.748 C 50.162 118.461,50.147 118.398,50.038 118.152 C 49.985 118.032,49.875 117.657,49.794 117.320 C 49.713 116.983,49.608 116.549,49.559 116.356 C 49.511 116.164,49.451 115.858,49.425 115.678 C 49.400 115.497,49.348 115.349,49.310 115.349 C 49.272 115.349,49.218 115.182,49.192 114.977 C 49.096 114.241,49.027 113.948,48.950 113.948 C 48.907 113.948,48.872 113.790,48.872 113.598 C 48.872 113.405,48.833 113.247,48.785 113.247 C 48.737 113.247,48.697 113.112,48.697 112.946 C 48.697 112.780,48.658 112.620,48.610 112.590 C 48.561 112.561,48.522 112.403,48.522 112.240 C 48.522 112.077,48.483 111.919,48.434 111.890 C 48.386 111.860,48.347 111.702,48.347 111.539 C 48.347 111.376,48.312 111.221,48.269 111.195 C 48.226 111.168,48.169 111.018,48.142 110.861 C 48.116 110.704,48.050 110.379,47.996 110.138 C 47.943 109.897,47.877 109.572,47.851 109.415 C 47.824 109.259,47.767 109.131,47.724 109.131 C 47.681 109.131,47.646 108.973,47.646 108.780 C 47.646 108.588,47.607 108.430,47.559 108.430 C 47.510 108.430,47.471 108.272,47.471 108.080 C 47.471 107.887,47.432 107.729,47.383 107.729 C 47.335 107.729,47.296 107.572,47.296 107.379 C 47.296 107.186,47.256 107.029,47.208 107.029 C 47.160 107.029,47.121 106.871,47.121 106.678 C 47.121 106.375,47.094 106.327,46.924 106.324 C 46.815 106.321,46.523 106.174,46.275 105.995 C 46.026 105.817,45.508 105.446,45.123 105.172 C 43.854 104.267,43.769 103.908,44.559 102.804 C 44.836 102.417,45.176 101.938,45.314 101.740 C 45.453 101.542,45.601 101.366,45.643 101.350 C 45.685 101.334,45.719 101.184,45.719 101.017 C 45.719 100.836,45.684 100.734,45.632 100.766 C 45.578 100.799,45.544 100.665,45.544 100.421 C 45.544 100.202,45.505 100.022,45.457 100.022 C 45.408 100.022,45.369 99.862,45.369 99.666 C 45.369 99.452,45.334 99.332,45.281 99.365 C 45.228 99.398,45.194 99.262,45.194 99.015 C 45.194 98.767,45.160 98.631,45.106 98.664 C 45.053 98.697,45.019 98.563,45.019 98.319 C 45.019 98.100,44.979 97.920,44.931 97.920 C 44.883 97.920,44.843 97.784,44.843 97.618 C 44.843 97.453,44.808 97.295,44.766 97.269 C 44.693 97.224,44.666 97.116,44.525 96.278 C 44.495 96.097,44.416 95.871,44.350 95.776 C 44.284 95.681,44.230 95.527,44.230 95.432 C 44.230 95.247,44.081 94.729,43.957 94.483 C 43.915 94.400,43.880 94.201,43.880 94.041 C 43.880 93.881,43.848 93.713,43.808 93.668 C 43.769 93.622,43.689 93.368,43.630 93.103 C 43.571 92.838,43.485 92.473,43.438 92.293 C 43.235 91.498,43.159 91.198,43.079 90.869 C 43.031 90.677,42.956 90.398,42.911 90.250 C 42.866 90.102,42.829 89.895,42.829 89.790 C 42.829 89.685,42.794 89.599,42.750 89.599 C 42.707 89.599,42.650 89.432,42.623 89.227 C 42.527 88.491,42.458 88.198,42.381 88.198 C 42.339 88.198,42.303 88.040,42.303 87.848 C 42.303 87.655,42.264 87.497,42.216 87.497 C 42.168 87.497,42.128 87.342,42.128 87.152 C 42.128 86.962,42.089 86.783,42.041 86.753 C 41.993 86.723,41.953 86.543,41.953 86.353 C 41.953 86.164,41.914 86.008,41.866 86.008 C 41.817 86.008,41.778 85.873,41.778 85.707 C 41.778 85.541,41.739 85.381,41.690 85.351 C 41.642 85.322,41.603 85.164,41.603 85.001 C 41.603 84.838,41.563 84.681,41.515 84.651 C 41.467 84.621,41.428 84.441,41.428 84.251 C 41.428 84.062,41.388 83.906,41.340 83.906 C 41.292 83.906,41.252 83.788,41.252 83.644 C 41.252 83.499,41.213 83.381,41.165 83.381 C 41.117 83.381,41.077 83.206,41.077 82.992 C 41.077 82.778,41.038 82.578,40.990 82.549 C 40.942 82.519,40.902 82.379,40.902 82.237 C 40.902 82.095,40.865 81.979,40.820 81.979 C 40.775 81.979,40.726 81.881,40.711 81.760 C 40.682 81.530,40.508 81.701,39.895 82.558 C 39.746 82.766,39.389 83.209,38.701 84.038 C 38.621 84.134,38.366 84.449,38.133 84.738 C 37.901 85.027,37.341 85.717,36.889 86.271 C 36.437 86.825,35.687 87.745,35.222 88.316 C 34.757 88.886,34.320 89.438,34.251 89.542 C 34.182 89.646,33.942 89.947,33.719 90.212 C 33.496 90.477,33.250 90.773,33.172 90.869 C 30.653 93.995,30.771 93.894,30.024 93.559 C 29.249 93.213,24.414 88.874,23.513 87.716 C 23.325 87.475,22.832 86.924,22.417 86.490 C 22.002 86.056,21.558 85.537,21.431 85.335 C 21.304 85.134,20.950 84.661,20.645 84.284 C 20.339 83.908,19.847 83.245,19.551 82.811 C 19.255 82.378,18.854 81.798,18.659 81.522 C 18.464 81.246,18.305 81.004,18.305 80.983 C 18.305 80.963,18.141 80.676,17.941 80.346 C 17.096 78.956,16.564 77.837,15.634 75.498 C 14.604 72.907,13.957 70.203,13.757 67.659 C 13.352 62.491,13.321 62.548,15.585 64.274 C 16.190 64.735,16.705 65.137,16.729 65.168 C 16.753 65.198,16.946 65.347,17.158 65.499 C 17.986 66.094,18.101 65.849,17.950 63.817 C 17.727 60.814,18.018 55.683,18.652 51.456 C 18.702 51.119,18.787 50.528,18.841 50.142 C 19.123 48.106,19.284 47.193,19.708 45.238 C 19.865 44.515,20.025 43.766,20.064 43.573 C 20.102 43.381,20.195 43.008,20.271 42.744 C 20.584 41.645,20.186 41.195,19.312 41.663 M119.347 66.455 C 104.409 111.463,99.496 126.279,99.496 126.328 C 99.496 126.360,101.827 126.376,104.676 126.364 L 109.855 126.341 112.443 118.480 L 115.032 110.619 127.825 110.641 L 140.617 110.663 143.245 118.502 L 145.873 126.341 152.366 126.364 L 158.860 126.386 155.870 117.472 C 154.225 112.568,149.194 97.572,144.690 84.146 L 136.501 59.734 129.039 59.734 L 121.578 59.733 119.347 66.455 M267.484 93.059 L 267.484 126.385 273.133 126.385 L 278.783 126.385 278.783 112.612 C 278.784 103.902,278.818 98.453,278.875 97.788 C 279.275 93.132,280.350 90.191,282.459 87.987 C 287.394 82.830,295.241 83.973,296.822 90.081 C 297.269 91.810,297.263 91.523,297.263 109.573 L 297.263 126.385 302.912 126.385 L 308.561 126.385 308.560 109.722 C 308.558 92.584,308.518 90.033,308.214 87.957 C 306.956 79.365,301.994 75.060,293.347 75.060 C 286.619 75.060,281.872 78.297,279.023 84.826 L 278.794 85.351 278.788 72.542 L 278.783 59.733 273.133 59.733 L 267.484 59.733 267.484 93.059 M132.521 86.140 C 135.133 94.136,137.288 100.728,137.311 100.788 C 137.343 100.875,135.385 100.898,127.699 100.898 C 120.014 100.898,118.053 100.875,118.084 100.788 C 118.105 100.728,120.267 94.109,122.889 86.079 C 125.510 78.049,127.681 71.506,127.714 71.540 C 127.746 71.573,129.909 78.143,132.521 86.140 M396.916 75.722 C 391.868 76.508,387.661 80.812,385.234 87.672 L 384.939 88.504 384.937 82.790 L 384.935 77.075 379.855 77.075 L 374.776 77.075 374.776 101.730 L 374.776 126.385 380.378 126.385 L 385.980 126.385 386.010 114.101 C 386.044 100.078,386.000 100.888,386.918 97.701 C 388.969 90.578,392.522 87.823,399.847 87.676 C 400.072 87.671,400.086 75.725,399.861 75.639 C 399.617 75.545,397.704 75.599,396.916 75.722 M189.716 76.129 C 184.557 76.702,180.348 80.308,177.136 86.908 L 176.486 88.242 176.485 82.658 L 176.483 77.075 171.360 77.075 L 166.236 77.075 166.236 101.730 L 166.236 126.385 171.841 126.385 L 177.447 126.385 177.448 113.357 C 177.449 97.300,177.489 96.606,178.589 93.497 C 181.396 85.570,190.554 83.190,194.481 89.368 C 195.023 90.222,195.349 91.089,195.686 92.577 L 195.875 93.409 195.903 109.897 L 195.931 126.385 201.579 126.385 L 207.226 126.385 207.224 110.642 C 207.223 94.955,207.179 91.988,206.919 89.993 C 206.313 85.349,204.870 82.165,202.382 79.982 C 199.071 77.077,194.286 75.621,189.716 76.129 M237.661 76.082 C 226.604 76.999,219.051 84.988,217.512 97.394 C 215.903 110.362,221.387 122.510,230.481 126.123 L 231.141 126.385 238.411 126.385 L 245.681 126.385 246.371 126.119 C 251.530 124.129,255.379 119.837,257.440 113.773 C 257.978 112.191,258.681 109.397,258.566 109.299 C 258.533 109.272,256.437 109.043,253.908 108.792 C 251.379 108.541,249.222 108.316,249.113 108.293 C 248.976 108.264,248.916 108.293,248.916 108.386 C 248.916 108.460,248.724 109.101,248.490 109.811 C 246.724 115.157,243.789 117.662,239.282 117.667 C 232.762 117.674,229.259 112.272,229.260 102.212 C 229.261 90.433,234.094 83.980,241.831 85.430 C 245.705 86.156,248.245 89.232,248.872 93.957 C 248.928 94.382,248.950 94.416,249.165 94.412 C 249.513 94.406,258.536 93.146,258.585 93.097 C 258.719 92.964,257.801 89.417,257.236 87.883 C 254.185 79.597,247.061 75.303,237.661 76.082 M340.136 76.075 C 339.943 76.093,339.352 76.152,338.822 76.204 C 326.820 77.385,318.667 87.664,318.680 101.598 C 318.691 113.109,324.247 122.838,332.666 126.090 L 333.429 126.385 341.131 126.385 L 348.833 126.385 349.608 126.105 C 357.441 123.275,363.085 115.665,364.306 106.284 C 366.329 90.751,358.462 78.216,345.478 76.288 C 344.306 76.114,341.057 75.984,340.136 76.075 M343.873 85.445 C 349.615 86.378,352.646 91.953,352.655 101.598 C 352.666 112.994,348.850 118.488,341.112 118.216 C 334.301 117.977,330.588 112.159,330.589 101.730 C 330.591 90.093,335.493 84.083,343.873 85.445 M96.297 100.403 C 96.060 100.566,95.369 100.953,94.635 101.334 C 94.298 101.509,93.944 101.697,93.847 101.751 C 93.504 101.946,91.629 102.825,91.556 102.825 C 91.470 102.825,90.793 103.165,90.475 103.367 C 90.355 103.443,90.099 103.555,89.906 103.615 C 89.713 103.674,89.516 103.753,89.468 103.790 C 89.420 103.827,89.124 103.963,88.811 104.092 C 88.498 104.221,88.084 104.408,87.891 104.507 C 87.699 104.606,87.270 104.780,86.939 104.893 C 86.607 105.006,86.292 105.132,86.238 105.173 C 86.184 105.213,85.962 105.296,85.746 105.357 C 85.529 105.417,85.229 105.538,85.079 105.625 C 84.775 105.800,83.440 106.301,82.899 106.441 C 82.706 106.491,82.194 106.661,81.760 106.817 C 81.327 106.974,80.854 107.130,80.709 107.163 C 80.565 107.197,80.092 107.332,79.658 107.464 C 78.276 107.885,77.657 108.055,77.118 108.165 C 76.829 108.224,76.508 108.305,76.403 108.346 C 76.299 108.386,75.964 108.445,75.659 108.477 C 74.109 108.635,73.931 109.189,75.176 109.979 C 76.691 110.941,77.687 111.829,77.687 112.220 C 77.688 112.523,77.642 112.542,76.023 112.933 C 74.783 113.232,74.041 113.377,72.345 113.656 C 71.175 113.848,66.305 113.853,65.601 113.662 C 65.102 113.527,64.898 113.630,65.155 113.887 C 65.208 113.940,65.251 114.133,65.251 114.316 C 65.251 114.499,65.290 114.649,65.338 114.649 C 65.386 114.649,65.426 114.828,65.426 115.048 C 65.426 115.292,65.460 115.426,65.513 115.393 C 65.566 115.360,65.601 115.480,65.601 115.694 C 65.601 115.890,65.640 116.050,65.689 116.050 C 65.737 116.050,65.776 116.247,65.776 116.488 C 65.776 116.729,65.816 116.926,65.864 116.926 C 65.912 116.926,65.951 117.083,65.951 117.276 C 65.951 117.469,65.991 117.626,66.039 117.626 C 66.087 117.626,66.127 117.804,66.127 118.021 C 66.127 118.237,66.166 118.415,66.214 118.415 C 66.262 118.415,66.302 118.572,66.302 118.765 C 66.302 118.958,66.341 119.115,66.389 119.115 C 66.437 119.115,66.477 119.295,66.477 119.515 C 66.477 119.759,66.511 119.893,66.564 119.860 C 66.618 119.827,66.652 119.976,66.652 120.249 C 66.652 120.493,66.691 120.692,66.740 120.692 C 66.788 120.692,66.827 120.850,66.827 121.042 C 66.827 121.235,66.867 121.393,66.915 121.393 C 66.963 121.393,67.003 121.600,67.004 121.852 C 67.005 122.182,67.029 122.275,67.090 122.181 C 67.182 122.039,67.214 122.183,67.182 122.589 C 67.174 122.692,67.208 122.802,67.257 122.833 C 67.307 122.864,67.374 123.084,67.405 123.323 C 67.437 123.562,67.497 123.757,67.539 123.757 C 67.581 123.757,67.616 123.883,67.616 124.036 C 67.616 124.189,67.654 124.435,67.700 124.583 C 67.747 124.731,67.808 124.968,67.837 125.110 C 67.867 125.252,67.917 125.330,67.950 125.282 C 68.014 125.189,68.542 125.017,68.973 124.949 C 69.340 124.891,69.930 124.707,71.250 124.237 C 71.877 124.015,72.566 123.769,72.783 123.692 C 73.000 123.616,73.306 123.480,73.464 123.392 C 73.622 123.304,73.793 123.232,73.844 123.232 C 73.895 123.232,74.254 123.074,74.643 122.882 C 75.032 122.689,75.391 122.531,75.440 122.531 C 75.489 122.531,75.847 122.341,76.236 122.110 C 76.625 121.878,77.118 121.619,77.332 121.534 C 77.546 121.450,77.822 121.309,77.945 121.222 C 78.332 120.947,79.093 120.517,79.191 120.517 C 79.242 120.517,79.526 120.328,79.822 120.096 C 81.930 118.447,82.107 118.715,81.407 122.487 C 80.889 125.277,81.255 125.601,83.002 123.901 C 83.620 123.300,84.264 122.696,84.433 122.560 C 84.871 122.208,85.967 121.094,86.534 120.427 C 86.799 120.115,87.035 119.840,87.059 119.816 C 87.083 119.792,87.319 119.516,87.583 119.203 C 87.846 118.890,88.086 118.614,88.115 118.590 C 88.366 118.383,91.247 114.317,91.466 113.859 C 91.501 113.788,91.644 113.552,91.785 113.335 C 92.026 112.964,92.216 112.614,92.925 111.233 C 93.086 110.920,93.285 110.565,93.369 110.444 C 93.635 110.060,94.387 108.571,94.453 108.299 C 94.488 108.154,94.735 107.583,95.003 107.029 C 95.271 106.475,95.618 105.647,95.776 105.189 C 95.933 104.732,96.168 104.081,96.299 103.744 C 96.429 103.407,96.554 103.033,96.577 102.912 C 96.600 102.792,96.652 102.614,96.692 102.518 C 97.405 100.794,97.214 99.774,96.297 100.403 " stroke="none" fill-rule="evenodd" fill="white"></path></g></svg>